%FSLAX45Y45*%
G04 Gerber Fmt 4.5, Leading zero omitted, Abs format (unit mm)*
G04 Created by KiCad (PCBNEW (6.0.5)) date 2025-03-09 20:54:10*
%MOMM*%
%LPD*%
G01*
G04 APERTURE LIST*
%TA.AperFunction,Profile*%
%ADD10C,0.100000*%
%TD*%
%ADD11C,0.200000*%
%ADD12C,0.065000*%
G04 APERTURE END LIST*
D10*
X12440000Y-9320000D02*
X12440000Y-11000000D01*
X17420000Y-9320000D02*
X17420000Y-11000000D01*
X17360000Y-9260000D02*
X12500000Y-9260000D01*
X12500000Y-11060000D02*
X17360000Y-11060000D01*
X12440000Y-11000000D02*
G75*
G03*
X12500000Y-11060000I60000J0D01*
G01*
X12500000Y-9260000D02*
G75*
G03*
X12440000Y-9320000I0J-60000D01*
G01*
X17420000Y-9320000D02*
G75*
G03*
X17360000Y-9260000I-60000J0D01*
G01*
X17360000Y-11060000D02*
G75*
G03*
X17420000Y-11000000I0J60000D01*
G01*
D11*
D12*
X13047500Y-9838500D02*
X13112500Y-9903500D01*
X13112500Y-9838500D02*
X13047500Y-9903500D01*
X13047500Y-10416500D02*
X13112500Y-10481500D01*
X13112500Y-10416500D02*
X13047500Y-10481500D01*
D11*
X12692619Y-11375476D02*
X12692619Y-11175476D01*
X12740238Y-11175476D01*
X12768809Y-11185000D01*
X12787857Y-11204048D01*
X12797381Y-11223095D01*
X12806905Y-11261190D01*
X12806905Y-11289762D01*
X12797381Y-11327857D01*
X12787857Y-11346905D01*
X12768809Y-11365952D01*
X12740238Y-11375476D01*
X12692619Y-11375476D01*
X12892619Y-11375476D02*
X12892619Y-11242143D01*
X12892619Y-11280238D02*
X12902143Y-11261190D01*
X12911667Y-11251667D01*
X12930714Y-11242143D01*
X12949762Y-11242143D01*
X13016428Y-11375476D02*
X13016428Y-11242143D01*
X13016428Y-11175476D02*
X13006905Y-11185000D01*
X13016428Y-11194524D01*
X13025952Y-11185000D01*
X13016428Y-11175476D01*
X13016428Y-11194524D01*
X13140238Y-11375476D02*
X13121190Y-11365952D01*
X13111667Y-11346905D01*
X13111667Y-11175476D01*
X13245000Y-11375476D02*
X13225952Y-11365952D01*
X13216428Y-11346905D01*
X13216428Y-11175476D01*
X13473571Y-11375476D02*
X13473571Y-11175476D01*
X13540238Y-11318333D01*
X13606905Y-11175476D01*
X13606905Y-11375476D01*
X13787857Y-11375476D02*
X13787857Y-11270714D01*
X13778333Y-11251667D01*
X13759286Y-11242143D01*
X13721190Y-11242143D01*
X13702143Y-11251667D01*
X13787857Y-11365952D02*
X13768809Y-11375476D01*
X13721190Y-11375476D01*
X13702143Y-11365952D01*
X13692619Y-11346905D01*
X13692619Y-11327857D01*
X13702143Y-11308809D01*
X13721190Y-11299286D01*
X13768809Y-11299286D01*
X13787857Y-11289762D01*
X13883095Y-11242143D02*
X13883095Y-11442143D01*
X13883095Y-11251667D02*
X13902143Y-11242143D01*
X13940238Y-11242143D01*
X13959286Y-11251667D01*
X13968809Y-11261190D01*
X13978333Y-11280238D01*
X13978333Y-11337381D01*
X13968809Y-11356428D01*
X13959286Y-11365952D01*
X13940238Y-11375476D01*
X13902143Y-11375476D01*
X13883095Y-11365952D01*
X14064048Y-11356428D02*
X14073571Y-11365952D01*
X14064048Y-11375476D01*
X14054524Y-11365952D01*
X14064048Y-11356428D01*
X14064048Y-11375476D01*
X14064048Y-11251667D02*
X14073571Y-11261190D01*
X14064048Y-11270714D01*
X14054524Y-11261190D01*
X14064048Y-11251667D01*
X14064048Y-11270714D01*
D12*
X12370000Y-11672500D02*
X12435000Y-11737500D01*
X12435000Y-11672500D02*
X12370000Y-11737500D01*
D11*
X12730714Y-11595476D02*
X12749762Y-11595476D01*
X12768809Y-11605000D01*
X12778333Y-11614524D01*
X12787857Y-11633571D01*
X12797381Y-11671667D01*
X12797381Y-11719286D01*
X12787857Y-11757381D01*
X12778333Y-11776428D01*
X12768809Y-11785952D01*
X12749762Y-11795476D01*
X12730714Y-11795476D01*
X12711667Y-11785952D01*
X12702143Y-11776428D01*
X12692619Y-11757381D01*
X12683095Y-11719286D01*
X12683095Y-11671667D01*
X12692619Y-11633571D01*
X12702143Y-11614524D01*
X12711667Y-11605000D01*
X12730714Y-11595476D01*
X12883095Y-11776428D02*
X12892619Y-11785952D01*
X12883095Y-11795476D01*
X12873571Y-11785952D01*
X12883095Y-11776428D01*
X12883095Y-11795476D01*
X13064048Y-11595476D02*
X13025952Y-11595476D01*
X13006905Y-11605000D01*
X12997381Y-11614524D01*
X12978333Y-11643095D01*
X12968809Y-11681190D01*
X12968809Y-11757381D01*
X12978333Y-11776428D01*
X12987857Y-11785952D01*
X13006905Y-11795476D01*
X13045000Y-11795476D01*
X13064048Y-11785952D01*
X13073571Y-11776428D01*
X13083095Y-11757381D01*
X13083095Y-11709762D01*
X13073571Y-11690714D01*
X13064048Y-11681190D01*
X13045000Y-11671667D01*
X13006905Y-11671667D01*
X12987857Y-11681190D01*
X12978333Y-11690714D01*
X12968809Y-11709762D01*
X13264048Y-11595476D02*
X13168809Y-11595476D01*
X13159286Y-11690714D01*
X13168809Y-11681190D01*
X13187857Y-11671667D01*
X13235476Y-11671667D01*
X13254524Y-11681190D01*
X13264048Y-11690714D01*
X13273571Y-11709762D01*
X13273571Y-11757381D01*
X13264048Y-11776428D01*
X13254524Y-11785952D01*
X13235476Y-11795476D01*
X13187857Y-11795476D01*
X13168809Y-11785952D01*
X13159286Y-11776428D01*
X13397381Y-11595476D02*
X13416428Y-11595476D01*
X13435476Y-11605000D01*
X13445000Y-11614524D01*
X13454524Y-11633571D01*
X13464048Y-11671667D01*
X13464048Y-11719286D01*
X13454524Y-11757381D01*
X13445000Y-11776428D01*
X13435476Y-11785952D01*
X13416428Y-11795476D01*
X13397381Y-11795476D01*
X13378333Y-11785952D01*
X13368809Y-11776428D01*
X13359286Y-11757381D01*
X13349762Y-11719286D01*
X13349762Y-11671667D01*
X13359286Y-11633571D01*
X13368809Y-11614524D01*
X13378333Y-11605000D01*
X13397381Y-11595476D01*
X13549762Y-11795476D02*
X13549762Y-11662143D01*
X13549762Y-11681190D02*
X13559286Y-11671667D01*
X13578333Y-11662143D01*
X13606905Y-11662143D01*
X13625952Y-11671667D01*
X13635476Y-11690714D01*
X13635476Y-11795476D01*
X13635476Y-11690714D02*
X13645000Y-11671667D01*
X13664048Y-11662143D01*
X13692619Y-11662143D01*
X13711667Y-11671667D01*
X13721190Y-11690714D01*
X13721190Y-11795476D01*
X13816428Y-11795476D02*
X13816428Y-11662143D01*
X13816428Y-11681190D02*
X13825952Y-11671667D01*
X13845000Y-11662143D01*
X13873571Y-11662143D01*
X13892619Y-11671667D01*
X13902143Y-11690714D01*
X13902143Y-11795476D01*
X13902143Y-11690714D02*
X13911667Y-11671667D01*
X13930714Y-11662143D01*
X13959286Y-11662143D01*
X13978333Y-11671667D01*
X13987857Y-11690714D01*
X13987857Y-11795476D01*
X14378333Y-11585952D02*
X14206905Y-11843095D01*
X14635476Y-11595476D02*
X14654524Y-11595476D01*
X14673571Y-11605000D01*
X14683095Y-11614524D01*
X14692619Y-11633571D01*
X14702143Y-11671667D01*
X14702143Y-11719286D01*
X14692619Y-11757381D01*
X14683095Y-11776428D01*
X14673571Y-11785952D01*
X14654524Y-11795476D01*
X14635476Y-11795476D01*
X14616428Y-11785952D01*
X14606905Y-11776428D01*
X14597381Y-11757381D01*
X14587857Y-11719286D01*
X14587857Y-11671667D01*
X14597381Y-11633571D01*
X14606905Y-11614524D01*
X14616428Y-11605000D01*
X14635476Y-11595476D01*
X14787857Y-11776428D02*
X14797381Y-11785952D01*
X14787857Y-11795476D01*
X14778333Y-11785952D01*
X14787857Y-11776428D01*
X14787857Y-11795476D01*
X14921190Y-11595476D02*
X14940238Y-11595476D01*
X14959286Y-11605000D01*
X14968809Y-11614524D01*
X14978333Y-11633571D01*
X14987857Y-11671667D01*
X14987857Y-11719286D01*
X14978333Y-11757381D01*
X14968809Y-11776428D01*
X14959286Y-11785952D01*
X14940238Y-11795476D01*
X14921190Y-11795476D01*
X14902143Y-11785952D01*
X14892619Y-11776428D01*
X14883095Y-11757381D01*
X14873571Y-11719286D01*
X14873571Y-11671667D01*
X14883095Y-11633571D01*
X14892619Y-11614524D01*
X14902143Y-11605000D01*
X14921190Y-11595476D01*
X15064048Y-11614524D02*
X15073571Y-11605000D01*
X15092619Y-11595476D01*
X15140238Y-11595476D01*
X15159286Y-11605000D01*
X15168809Y-11614524D01*
X15178333Y-11633571D01*
X15178333Y-11652619D01*
X15168809Y-11681190D01*
X15054524Y-11795476D01*
X15178333Y-11795476D01*
X15359286Y-11595476D02*
X15264048Y-11595476D01*
X15254524Y-11690714D01*
X15264048Y-11681190D01*
X15283095Y-11671667D01*
X15330714Y-11671667D01*
X15349762Y-11681190D01*
X15359286Y-11690714D01*
X15368809Y-11709762D01*
X15368809Y-11757381D01*
X15359286Y-11776428D01*
X15349762Y-11785952D01*
X15330714Y-11795476D01*
X15283095Y-11795476D01*
X15264048Y-11785952D01*
X15254524Y-11776428D01*
X15540238Y-11595476D02*
X15502143Y-11595476D01*
X15483095Y-11605000D01*
X15473571Y-11614524D01*
X15454524Y-11643095D01*
X15445000Y-11681190D01*
X15445000Y-11757381D01*
X15454524Y-11776428D01*
X15464048Y-11785952D01*
X15483095Y-11795476D01*
X15521190Y-11795476D01*
X15540238Y-11785952D01*
X15549762Y-11776428D01*
X15559286Y-11757381D01*
X15559286Y-11709762D01*
X15549762Y-11690714D01*
X15540238Y-11681190D01*
X15521190Y-11671667D01*
X15483095Y-11671667D01*
X15464048Y-11681190D01*
X15454524Y-11690714D01*
X15445000Y-11709762D01*
X15635476Y-11595476D02*
X15635476Y-11633571D01*
X15711667Y-11595476D02*
X15711667Y-11633571D01*
X16006905Y-11871667D02*
X15997381Y-11862143D01*
X15978333Y-11833571D01*
X15968809Y-11814524D01*
X15959286Y-11785952D01*
X15949762Y-11738333D01*
X15949762Y-11700238D01*
X15959286Y-11652619D01*
X15968809Y-11624048D01*
X15978333Y-11605000D01*
X15997381Y-11576428D01*
X16006905Y-11566905D01*
X16073571Y-11614524D02*
X16083095Y-11605000D01*
X16102143Y-11595476D01*
X16149762Y-11595476D01*
X16168809Y-11605000D01*
X16178333Y-11614524D01*
X16187857Y-11633571D01*
X16187857Y-11652619D01*
X16178333Y-11681190D01*
X16064048Y-11795476D01*
X16187857Y-11795476D01*
X16425952Y-11795476D02*
X16425952Y-11595476D01*
X16511667Y-11795476D02*
X16511667Y-11690714D01*
X16502143Y-11671667D01*
X16483095Y-11662143D01*
X16454524Y-11662143D01*
X16435476Y-11671667D01*
X16425952Y-11681190D01*
X16635476Y-11795476D02*
X16616428Y-11785952D01*
X16606905Y-11776428D01*
X16597381Y-11757381D01*
X16597381Y-11700238D01*
X16606905Y-11681190D01*
X16616428Y-11671667D01*
X16635476Y-11662143D01*
X16664048Y-11662143D01*
X16683095Y-11671667D01*
X16692619Y-11681190D01*
X16702143Y-11700238D01*
X16702143Y-11757381D01*
X16692619Y-11776428D01*
X16683095Y-11785952D01*
X16664048Y-11795476D01*
X16635476Y-11795476D01*
X16816429Y-11795476D02*
X16797381Y-11785952D01*
X16787857Y-11766905D01*
X16787857Y-11595476D01*
X16968810Y-11785952D02*
X16949762Y-11795476D01*
X16911667Y-11795476D01*
X16892619Y-11785952D01*
X16883095Y-11766905D01*
X16883095Y-11690714D01*
X16892619Y-11671667D01*
X16911667Y-11662143D01*
X16949762Y-11662143D01*
X16968810Y-11671667D01*
X16978333Y-11690714D01*
X16978333Y-11709762D01*
X16883095Y-11728809D01*
X17054524Y-11785952D02*
X17073571Y-11795476D01*
X17111667Y-11795476D01*
X17130714Y-11785952D01*
X17140238Y-11766905D01*
X17140238Y-11757381D01*
X17130714Y-11738333D01*
X17111667Y-11728809D01*
X17083095Y-11728809D01*
X17064048Y-11719286D01*
X17054524Y-11700238D01*
X17054524Y-11690714D01*
X17064048Y-11671667D01*
X17083095Y-11662143D01*
X17111667Y-11662143D01*
X17130714Y-11671667D01*
X17206905Y-11871667D02*
X17216429Y-11862143D01*
X17235476Y-11833571D01*
X17245000Y-11814524D01*
X17254524Y-11785952D01*
X17264048Y-11738333D01*
X17264048Y-11700238D01*
X17254524Y-11652619D01*
X17245000Y-11624048D01*
X17235476Y-11605000D01*
X17216429Y-11576428D01*
X17206905Y-11566905D01*
X17568810Y-11871667D02*
X17559286Y-11862143D01*
X17540238Y-11833571D01*
X17530714Y-11814524D01*
X17521190Y-11785952D01*
X17511667Y-11738333D01*
X17511667Y-11700238D01*
X17521190Y-11652619D01*
X17530714Y-11624048D01*
X17540238Y-11605000D01*
X17559286Y-11576428D01*
X17568810Y-11566905D01*
X17645000Y-11662143D02*
X17645000Y-11795476D01*
X17645000Y-11681190D02*
X17654524Y-11671667D01*
X17673571Y-11662143D01*
X17702143Y-11662143D01*
X17721190Y-11671667D01*
X17730714Y-11690714D01*
X17730714Y-11795476D01*
X17854524Y-11795476D02*
X17835476Y-11785952D01*
X17825952Y-11776428D01*
X17816429Y-11757381D01*
X17816429Y-11700238D01*
X17825952Y-11681190D01*
X17835476Y-11671667D01*
X17854524Y-11662143D01*
X17883095Y-11662143D01*
X17902143Y-11671667D01*
X17911667Y-11681190D01*
X17921190Y-11700238D01*
X17921190Y-11757381D01*
X17911667Y-11776428D01*
X17902143Y-11785952D01*
X17883095Y-11795476D01*
X17854524Y-11795476D01*
X17978333Y-11662143D02*
X18054524Y-11662143D01*
X18006905Y-11595476D02*
X18006905Y-11766905D01*
X18016429Y-11785952D01*
X18035476Y-11795476D01*
X18054524Y-11795476D01*
X18273571Y-11662143D02*
X18273571Y-11862143D01*
X18273571Y-11671667D02*
X18292619Y-11662143D01*
X18330714Y-11662143D01*
X18349762Y-11671667D01*
X18359286Y-11681190D01*
X18368810Y-11700238D01*
X18368810Y-11757381D01*
X18359286Y-11776428D01*
X18349762Y-11785952D01*
X18330714Y-11795476D01*
X18292619Y-11795476D01*
X18273571Y-11785952D01*
X18483095Y-11795476D02*
X18464048Y-11785952D01*
X18454524Y-11766905D01*
X18454524Y-11595476D01*
X18645000Y-11795476D02*
X18645000Y-11690714D01*
X18635476Y-11671667D01*
X18616429Y-11662143D01*
X18578333Y-11662143D01*
X18559286Y-11671667D01*
X18645000Y-11785952D02*
X18625952Y-11795476D01*
X18578333Y-11795476D01*
X18559286Y-11785952D01*
X18549762Y-11766905D01*
X18549762Y-11747857D01*
X18559286Y-11728809D01*
X18578333Y-11719286D01*
X18625952Y-11719286D01*
X18645000Y-11709762D01*
X18711667Y-11662143D02*
X18787857Y-11662143D01*
X18740238Y-11595476D02*
X18740238Y-11766905D01*
X18749762Y-11785952D01*
X18768810Y-11795476D01*
X18787857Y-11795476D01*
X18930714Y-11785952D02*
X18911667Y-11795476D01*
X18873571Y-11795476D01*
X18854524Y-11785952D01*
X18845000Y-11766905D01*
X18845000Y-11690714D01*
X18854524Y-11671667D01*
X18873571Y-11662143D01*
X18911667Y-11662143D01*
X18930714Y-11671667D01*
X18940238Y-11690714D01*
X18940238Y-11709762D01*
X18845000Y-11728809D01*
X19111667Y-11795476D02*
X19111667Y-11595476D01*
X19111667Y-11785952D02*
X19092619Y-11795476D01*
X19054524Y-11795476D01*
X19035476Y-11785952D01*
X19025952Y-11776428D01*
X19016429Y-11757381D01*
X19016429Y-11700238D01*
X19025952Y-11681190D01*
X19035476Y-11671667D01*
X19054524Y-11662143D01*
X19092619Y-11662143D01*
X19111667Y-11671667D01*
X19187857Y-11871667D02*
X19197381Y-11862143D01*
X19216429Y-11833571D01*
X19225952Y-11814524D01*
X19235476Y-11785952D01*
X19245000Y-11738333D01*
X19245000Y-11700238D01*
X19235476Y-11652619D01*
X19225952Y-11624048D01*
X19216429Y-11605000D01*
X19197381Y-11576428D01*
X19187857Y-11566905D01*
M02*
