%FSLAX45Y45*%
G04 Gerber Fmt 4.5, Leading zero omitted, Abs format (unit mm)*
G04 Created by KiCad (PCBNEW (6.0.5)) date 2025-03-09 20:54:10*
%MOMM*%
%LPD*%
G01*
G04 APERTURE LIST*
%TA.AperFunction,Profile*%
%ADD10C,0.100000*%
%TD*%
%ADD11C,0.200000*%
%ADD12C,0.040000*%
%ADD13C,0.060000*%
%ADD14C,0.065000*%
%ADD15C,0.080000*%
%ADD16C,0.100000*%
G04 APERTURE END LIST*
D10*
X12440000Y-9320000D02*
X12440000Y-11000000D01*
X17420000Y-9320000D02*
X17420000Y-11000000D01*
X17360000Y-9260000D02*
X12500000Y-9260000D01*
X12500000Y-11060000D02*
X17360000Y-11060000D01*
X12440000Y-11000000D02*
G75*
G03*
X12500000Y-11060000I60000J0D01*
G01*
X12500000Y-9260000D02*
G75*
G03*
X12440000Y-9320000I0J-60000D01*
G01*
X17420000Y-9320000D02*
G75*
G03*
X17360000Y-9260000I-60000J0D01*
G01*
X17360000Y-11060000D02*
G75*
G03*
X17420000Y-11000000I0J60000D01*
G01*
D11*
D12*
X13445000Y-9815000D02*
X13485000Y-9855000D01*
X13485000Y-9815000D02*
X13445000Y-9855000D01*
X13460000Y-10680000D02*
X13500000Y-10720000D01*
X13500000Y-10680000D02*
X13460000Y-10720000D01*
X14100000Y-10560000D02*
X14140000Y-10600000D01*
X14140000Y-10560000D02*
X14100000Y-10600000D01*
X14177002Y-10037002D02*
X14217002Y-10077002D01*
X14217002Y-10037002D02*
X14177002Y-10077002D01*
X14340000Y-10100000D02*
X14380000Y-10140000D01*
X14380000Y-10100000D02*
X14340000Y-10140000D01*
X14480000Y-10580000D02*
X14520000Y-10620000D01*
X14520000Y-10580000D02*
X14480000Y-10620000D01*
X14620000Y-9920000D02*
X14660000Y-9960000D01*
X14660000Y-9920000D02*
X14620000Y-9960000D01*
X14760000Y-10320000D02*
X14800000Y-10360000D01*
X14800000Y-10320000D02*
X14760000Y-10360000D01*
X14800000Y-9480000D02*
X14840000Y-9520000D01*
X14840000Y-9480000D02*
X14800000Y-9520000D01*
X14820000Y-10180000D02*
X14860000Y-10220000D01*
X14860000Y-10180000D02*
X14820000Y-10220000D01*
X14860000Y-9360000D02*
X14900000Y-9400000D01*
X14900000Y-9360000D02*
X14860000Y-9400000D01*
X15080000Y-10540000D02*
X15120000Y-10580000D01*
X15120000Y-10540000D02*
X15080000Y-10580000D01*
X15080000Y-10680000D02*
X15120000Y-10720000D01*
X15120000Y-10680000D02*
X15080000Y-10720000D01*
X15106233Y-10048868D02*
X15146233Y-10088868D01*
X15146233Y-10048868D02*
X15106233Y-10088868D01*
X15120000Y-10180000D02*
X15160000Y-10220000D01*
X15160000Y-10180000D02*
X15120000Y-10220000D01*
X15121355Y-10319565D02*
X15161355Y-10359565D01*
X15161355Y-10319565D02*
X15121355Y-10359565D01*
X15240000Y-9480000D02*
X15280000Y-9520000D01*
X15280000Y-9480000D02*
X15240000Y-9520000D01*
X15800000Y-9960000D02*
X15840000Y-10000000D01*
X15840000Y-9960000D02*
X15800000Y-10000000D01*
X15820000Y-10680000D02*
X15860000Y-10720000D01*
X15860000Y-10680000D02*
X15820000Y-10720000D01*
X15920000Y-10140000D02*
X15960000Y-10180000D01*
X15960000Y-10140000D02*
X15920000Y-10180000D01*
D13*
X12745000Y-9728000D02*
G75*
G03*
X12745000Y-9728000I-30000J0D01*
G01*
D11*
X12745000Y-9708000D02*
X12685000Y-9708000D01*
X12745000Y-9748000D02*
X12685000Y-9748000D01*
X12685000Y-9708000D02*
G75*
G03*
X12685000Y-9748000I0J-20000D01*
G01*
X12745000Y-9748000D02*
G75*
G03*
X12745000Y-9708000I0J20000D01*
G01*
D13*
X12745000Y-10592000D02*
G75*
G03*
X12745000Y-10592000I-30000J0D01*
G01*
D11*
X12745000Y-10572000D02*
X12685000Y-10572000D01*
X12745000Y-10612000D02*
X12685000Y-10612000D01*
X12685000Y-10572000D02*
G75*
G03*
X12685000Y-10612000I0J-20000D01*
G01*
X12745000Y-10612000D02*
G75*
G03*
X12745000Y-10572000I0J20000D01*
G01*
D13*
X13163000Y-9728000D02*
G75*
G03*
X13163000Y-9728000I-30000J0D01*
G01*
D11*
X13188000Y-9708000D02*
X13078000Y-9708000D01*
X13188000Y-9748000D02*
X13078000Y-9748000D01*
X13078000Y-9708000D02*
G75*
G03*
X13078000Y-9748000I0J-20000D01*
G01*
X13188000Y-9748000D02*
G75*
G03*
X13188000Y-9708000I0J20000D01*
G01*
D13*
X13163000Y-10592000D02*
G75*
G03*
X13163000Y-10592000I-30000J0D01*
G01*
D11*
X13188000Y-10572000D02*
X13078000Y-10572000D01*
X13188000Y-10612000D02*
X13078000Y-10612000D01*
X13078000Y-10572000D02*
G75*
G03*
X13078000Y-10612000I0J-20000D01*
G01*
X13188000Y-10612000D02*
G75*
G03*
X13188000Y-10572000I0J20000D01*
G01*
D14*
X14075000Y-9867500D02*
X14075000Y-9932500D01*
X14042500Y-9900000D02*
X14107500Y-9900000D01*
X14202000Y-9867500D02*
X14202000Y-9932500D01*
X14169500Y-9900000D02*
X14234500Y-9900000D01*
D15*
X16230784Y-9847285D02*
X16230784Y-9790716D01*
X16174215Y-9790716D01*
X16174215Y-9847285D01*
X16230784Y-9847285D01*
X16230784Y-10527285D02*
X16230784Y-10470716D01*
X16174215Y-10470716D01*
X16174215Y-10527285D01*
X16230784Y-10527285D01*
X16510784Y-9847285D02*
X16510784Y-9790716D01*
X16454215Y-9790716D01*
X16454215Y-9847285D01*
X16510784Y-9847285D01*
X16510784Y-10057285D02*
X16510784Y-10000716D01*
X16454215Y-10000716D01*
X16454215Y-10057285D01*
X16510784Y-10057285D01*
X16510784Y-10317285D02*
X16510784Y-10260716D01*
X16454215Y-10260716D01*
X16454215Y-10317285D01*
X16510784Y-10317285D01*
X16510784Y-10527285D02*
X16510784Y-10470716D01*
X16454215Y-10470716D01*
X16454215Y-10527285D01*
X16510784Y-10527285D01*
D16*
X16767500Y-9524000D02*
X16817500Y-9474000D01*
X16767500Y-9424000D01*
X16717500Y-9474000D01*
X16767500Y-9524000D01*
D11*
X16692500Y-9514000D02*
X16842500Y-9514000D01*
X16692500Y-9434000D02*
X16842500Y-9434000D01*
X16842500Y-9514000D02*
G75*
G03*
X16842500Y-9434000I0J40000D01*
G01*
X16692500Y-9434000D02*
G75*
G03*
X16692500Y-9514000I0J-40000D01*
G01*
D16*
X16767500Y-10894000D02*
X16817500Y-10844000D01*
X16767500Y-10794000D01*
X16717500Y-10844000D01*
X16767500Y-10894000D01*
D11*
X16692500Y-10884000D02*
X16842500Y-10884000D01*
X16692500Y-10804000D02*
X16842500Y-10804000D01*
X16842500Y-10884000D02*
G75*
G03*
X16842500Y-10804000I0J40000D01*
G01*
X16692500Y-10804000D02*
G75*
G03*
X16692500Y-10884000I0J-40000D01*
G01*
D16*
X16847500Y-10209000D02*
X16897500Y-10159000D01*
X16847500Y-10109000D01*
X16797500Y-10159000D01*
X16847500Y-10209000D01*
D11*
X16887500Y-10259000D02*
X16887500Y-10059000D01*
X16807500Y-10259000D02*
X16807500Y-10059000D01*
X16887500Y-10059000D02*
G75*
G03*
X16807500Y-10059000I-40000J0D01*
G01*
X16807500Y-10259000D02*
G75*
G03*
X16887500Y-10259000I40000J0D01*
G01*
X12692619Y-11375476D02*
X12692619Y-11175476D01*
X12740238Y-11175476D01*
X12768809Y-11185000D01*
X12787857Y-11204048D01*
X12797381Y-11223095D01*
X12806905Y-11261190D01*
X12806905Y-11289762D01*
X12797381Y-11327857D01*
X12787857Y-11346905D01*
X12768809Y-11365952D01*
X12740238Y-11375476D01*
X12692619Y-11375476D01*
X12892619Y-11375476D02*
X12892619Y-11242143D01*
X12892619Y-11280238D02*
X12902143Y-11261190D01*
X12911667Y-11251667D01*
X12930714Y-11242143D01*
X12949762Y-11242143D01*
X13016428Y-11375476D02*
X13016428Y-11242143D01*
X13016428Y-11175476D02*
X13006905Y-11185000D01*
X13016428Y-11194524D01*
X13025952Y-11185000D01*
X13016428Y-11175476D01*
X13016428Y-11194524D01*
X13140238Y-11375476D02*
X13121190Y-11365952D01*
X13111667Y-11346905D01*
X13111667Y-11175476D01*
X13245000Y-11375476D02*
X13225952Y-11365952D01*
X13216428Y-11346905D01*
X13216428Y-11175476D01*
X13473571Y-11375476D02*
X13473571Y-11175476D01*
X13540238Y-11318333D01*
X13606905Y-11175476D01*
X13606905Y-11375476D01*
X13787857Y-11375476D02*
X13787857Y-11270714D01*
X13778333Y-11251667D01*
X13759286Y-11242143D01*
X13721190Y-11242143D01*
X13702143Y-11251667D01*
X13787857Y-11365952D02*
X13768809Y-11375476D01*
X13721190Y-11375476D01*
X13702143Y-11365952D01*
X13692619Y-11346905D01*
X13692619Y-11327857D01*
X13702143Y-11308809D01*
X13721190Y-11299286D01*
X13768809Y-11299286D01*
X13787857Y-11289762D01*
X13883095Y-11242143D02*
X13883095Y-11442143D01*
X13883095Y-11251667D02*
X13902143Y-11242143D01*
X13940238Y-11242143D01*
X13959286Y-11251667D01*
X13968809Y-11261190D01*
X13978333Y-11280238D01*
X13978333Y-11337381D01*
X13968809Y-11356428D01*
X13959286Y-11365952D01*
X13940238Y-11375476D01*
X13902143Y-11375476D01*
X13883095Y-11365952D01*
X14064048Y-11356428D02*
X14073571Y-11365952D01*
X14064048Y-11375476D01*
X14054524Y-11365952D01*
X14064048Y-11356428D01*
X14064048Y-11375476D01*
X14064048Y-11251667D02*
X14073571Y-11261190D01*
X14064048Y-11270714D01*
X14054524Y-11261190D01*
X14064048Y-11251667D01*
X14064048Y-11270714D01*
D12*
X12395000Y-11685000D02*
X12435000Y-11725000D01*
X12435000Y-11685000D02*
X12395000Y-11725000D01*
D11*
X12730714Y-11595476D02*
X12749762Y-11595476D01*
X12768809Y-11605000D01*
X12778333Y-11614524D01*
X12787857Y-11633571D01*
X12797381Y-11671667D01*
X12797381Y-11719286D01*
X12787857Y-11757381D01*
X12778333Y-11776428D01*
X12768809Y-11785952D01*
X12749762Y-11795476D01*
X12730714Y-11795476D01*
X12711667Y-11785952D01*
X12702143Y-11776428D01*
X12692619Y-11757381D01*
X12683095Y-11719286D01*
X12683095Y-11671667D01*
X12692619Y-11633571D01*
X12702143Y-11614524D01*
X12711667Y-11605000D01*
X12730714Y-11595476D01*
X12883095Y-11776428D02*
X12892619Y-11785952D01*
X12883095Y-11795476D01*
X12873571Y-11785952D01*
X12883095Y-11776428D01*
X12883095Y-11795476D01*
X13064048Y-11662143D02*
X13064048Y-11795476D01*
X13016428Y-11585952D02*
X12968809Y-11728809D01*
X13092619Y-11728809D01*
X13206905Y-11595476D02*
X13225952Y-11595476D01*
X13245000Y-11605000D01*
X13254524Y-11614524D01*
X13264048Y-11633571D01*
X13273571Y-11671667D01*
X13273571Y-11719286D01*
X13264048Y-11757381D01*
X13254524Y-11776428D01*
X13245000Y-11785952D01*
X13225952Y-11795476D01*
X13206905Y-11795476D01*
X13187857Y-11785952D01*
X13178333Y-11776428D01*
X13168809Y-11757381D01*
X13159286Y-11719286D01*
X13159286Y-11671667D01*
X13168809Y-11633571D01*
X13178333Y-11614524D01*
X13187857Y-11605000D01*
X13206905Y-11595476D01*
X13397381Y-11595476D02*
X13416428Y-11595476D01*
X13435476Y-11605000D01*
X13445000Y-11614524D01*
X13454524Y-11633571D01*
X13464048Y-11671667D01*
X13464048Y-11719286D01*
X13454524Y-11757381D01*
X13445000Y-11776428D01*
X13435476Y-11785952D01*
X13416428Y-11795476D01*
X13397381Y-11795476D01*
X13378333Y-11785952D01*
X13368809Y-11776428D01*
X13359286Y-11757381D01*
X13349762Y-11719286D01*
X13349762Y-11671667D01*
X13359286Y-11633571D01*
X13368809Y-11614524D01*
X13378333Y-11605000D01*
X13397381Y-11595476D01*
X13549762Y-11795476D02*
X13549762Y-11662143D01*
X13549762Y-11681190D02*
X13559286Y-11671667D01*
X13578333Y-11662143D01*
X13606905Y-11662143D01*
X13625952Y-11671667D01*
X13635476Y-11690714D01*
X13635476Y-11795476D01*
X13635476Y-11690714D02*
X13645000Y-11671667D01*
X13664048Y-11662143D01*
X13692619Y-11662143D01*
X13711667Y-11671667D01*
X13721190Y-11690714D01*
X13721190Y-11795476D01*
X13816428Y-11795476D02*
X13816428Y-11662143D01*
X13816428Y-11681190D02*
X13825952Y-11671667D01*
X13845000Y-11662143D01*
X13873571Y-11662143D01*
X13892619Y-11671667D01*
X13902143Y-11690714D01*
X13902143Y-11795476D01*
X13902143Y-11690714D02*
X13911667Y-11671667D01*
X13930714Y-11662143D01*
X13959286Y-11662143D01*
X13978333Y-11671667D01*
X13987857Y-11690714D01*
X13987857Y-11795476D01*
X14378333Y-11585952D02*
X14206905Y-11843095D01*
X14635476Y-11595476D02*
X14654524Y-11595476D01*
X14673571Y-11605000D01*
X14683095Y-11614524D01*
X14692619Y-11633571D01*
X14702143Y-11671667D01*
X14702143Y-11719286D01*
X14692619Y-11757381D01*
X14683095Y-11776428D01*
X14673571Y-11785952D01*
X14654524Y-11795476D01*
X14635476Y-11795476D01*
X14616428Y-11785952D01*
X14606905Y-11776428D01*
X14597381Y-11757381D01*
X14587857Y-11719286D01*
X14587857Y-11671667D01*
X14597381Y-11633571D01*
X14606905Y-11614524D01*
X14616428Y-11605000D01*
X14635476Y-11595476D01*
X14787857Y-11776428D02*
X14797381Y-11785952D01*
X14787857Y-11795476D01*
X14778333Y-11785952D01*
X14787857Y-11776428D01*
X14787857Y-11795476D01*
X14921190Y-11595476D02*
X14940238Y-11595476D01*
X14959286Y-11605000D01*
X14968809Y-11614524D01*
X14978333Y-11633571D01*
X14987857Y-11671667D01*
X14987857Y-11719286D01*
X14978333Y-11757381D01*
X14968809Y-11776428D01*
X14959286Y-11785952D01*
X14940238Y-11795476D01*
X14921190Y-11795476D01*
X14902143Y-11785952D01*
X14892619Y-11776428D01*
X14883095Y-11757381D01*
X14873571Y-11719286D01*
X14873571Y-11671667D01*
X14883095Y-11633571D01*
X14892619Y-11614524D01*
X14902143Y-11605000D01*
X14921190Y-11595476D01*
X15178333Y-11795476D02*
X15064048Y-11795476D01*
X15121190Y-11795476D02*
X15121190Y-11595476D01*
X15102143Y-11624048D01*
X15083095Y-11643095D01*
X15064048Y-11652619D01*
X15359286Y-11595476D02*
X15264048Y-11595476D01*
X15254524Y-11690714D01*
X15264048Y-11681190D01*
X15283095Y-11671667D01*
X15330714Y-11671667D01*
X15349762Y-11681190D01*
X15359286Y-11690714D01*
X15368809Y-11709762D01*
X15368809Y-11757381D01*
X15359286Y-11776428D01*
X15349762Y-11785952D01*
X15330714Y-11795476D01*
X15283095Y-11795476D01*
X15264048Y-11785952D01*
X15254524Y-11776428D01*
X15435476Y-11595476D02*
X15568809Y-11595476D01*
X15483095Y-11795476D01*
X15635476Y-11595476D02*
X15635476Y-11633571D01*
X15711667Y-11595476D02*
X15711667Y-11633571D01*
X16006905Y-11871667D02*
X15997381Y-11862143D01*
X15978333Y-11833571D01*
X15968809Y-11814524D01*
X15959286Y-11785952D01*
X15949762Y-11738333D01*
X15949762Y-11700238D01*
X15959286Y-11652619D01*
X15968809Y-11624048D01*
X15978333Y-11605000D01*
X15997381Y-11576428D01*
X16006905Y-11566905D01*
X16073571Y-11614524D02*
X16083095Y-11605000D01*
X16102143Y-11595476D01*
X16149762Y-11595476D01*
X16168809Y-11605000D01*
X16178333Y-11614524D01*
X16187857Y-11633571D01*
X16187857Y-11652619D01*
X16178333Y-11681190D01*
X16064048Y-11795476D01*
X16187857Y-11795476D01*
X16311667Y-11595476D02*
X16330714Y-11595476D01*
X16349762Y-11605000D01*
X16359286Y-11614524D01*
X16368809Y-11633571D01*
X16378333Y-11671667D01*
X16378333Y-11719286D01*
X16368809Y-11757381D01*
X16359286Y-11776428D01*
X16349762Y-11785952D01*
X16330714Y-11795476D01*
X16311667Y-11795476D01*
X16292619Y-11785952D01*
X16283095Y-11776428D01*
X16273571Y-11757381D01*
X16264048Y-11719286D01*
X16264048Y-11671667D01*
X16273571Y-11633571D01*
X16283095Y-11614524D01*
X16292619Y-11605000D01*
X16311667Y-11595476D01*
X16616428Y-11795476D02*
X16616428Y-11595476D01*
X16702143Y-11795476D02*
X16702143Y-11690714D01*
X16692619Y-11671667D01*
X16673571Y-11662143D01*
X16645000Y-11662143D01*
X16625952Y-11671667D01*
X16616428Y-11681190D01*
X16825952Y-11795476D02*
X16806905Y-11785952D01*
X16797381Y-11776428D01*
X16787857Y-11757381D01*
X16787857Y-11700238D01*
X16797381Y-11681190D01*
X16806905Y-11671667D01*
X16825952Y-11662143D01*
X16854524Y-11662143D01*
X16873571Y-11671667D01*
X16883095Y-11681190D01*
X16892619Y-11700238D01*
X16892619Y-11757381D01*
X16883095Y-11776428D01*
X16873571Y-11785952D01*
X16854524Y-11795476D01*
X16825952Y-11795476D01*
X17006905Y-11795476D02*
X16987857Y-11785952D01*
X16978333Y-11766905D01*
X16978333Y-11595476D01*
X17159286Y-11785952D02*
X17140238Y-11795476D01*
X17102143Y-11795476D01*
X17083095Y-11785952D01*
X17073571Y-11766905D01*
X17073571Y-11690714D01*
X17083095Y-11671667D01*
X17102143Y-11662143D01*
X17140238Y-11662143D01*
X17159286Y-11671667D01*
X17168810Y-11690714D01*
X17168810Y-11709762D01*
X17073571Y-11728809D01*
X17245000Y-11785952D02*
X17264048Y-11795476D01*
X17302143Y-11795476D01*
X17321190Y-11785952D01*
X17330714Y-11766905D01*
X17330714Y-11757381D01*
X17321190Y-11738333D01*
X17302143Y-11728809D01*
X17273571Y-11728809D01*
X17254524Y-11719286D01*
X17245000Y-11700238D01*
X17245000Y-11690714D01*
X17254524Y-11671667D01*
X17273571Y-11662143D01*
X17302143Y-11662143D01*
X17321190Y-11671667D01*
X17397381Y-11871667D02*
X17406905Y-11862143D01*
X17425952Y-11833571D01*
X17435476Y-11814524D01*
X17445000Y-11785952D01*
X17454524Y-11738333D01*
X17454524Y-11700238D01*
X17445000Y-11652619D01*
X17435476Y-11624048D01*
X17425952Y-11605000D01*
X17406905Y-11576428D01*
X17397381Y-11566905D01*
D13*
X12435000Y-11969000D02*
G75*
G03*
X12435000Y-11969000I-30000J0D01*
G01*
D11*
X12730714Y-11859476D02*
X12749762Y-11859476D01*
X12768809Y-11869000D01*
X12778333Y-11878524D01*
X12787857Y-11897571D01*
X12797381Y-11935667D01*
X12797381Y-11983286D01*
X12787857Y-12021381D01*
X12778333Y-12040428D01*
X12768809Y-12049952D01*
X12749762Y-12059476D01*
X12730714Y-12059476D01*
X12711667Y-12049952D01*
X12702143Y-12040428D01*
X12692619Y-12021381D01*
X12683095Y-11983286D01*
X12683095Y-11935667D01*
X12692619Y-11897571D01*
X12702143Y-11878524D01*
X12711667Y-11869000D01*
X12730714Y-11859476D01*
X12883095Y-12040428D02*
X12892619Y-12049952D01*
X12883095Y-12059476D01*
X12873571Y-12049952D01*
X12883095Y-12040428D01*
X12883095Y-12059476D01*
X13064048Y-11859476D02*
X13025952Y-11859476D01*
X13006905Y-11869000D01*
X12997381Y-11878524D01*
X12978333Y-11907095D01*
X12968809Y-11945190D01*
X12968809Y-12021381D01*
X12978333Y-12040428D01*
X12987857Y-12049952D01*
X13006905Y-12059476D01*
X13045000Y-12059476D01*
X13064048Y-12049952D01*
X13073571Y-12040428D01*
X13083095Y-12021381D01*
X13083095Y-11973762D01*
X13073571Y-11954714D01*
X13064048Y-11945190D01*
X13045000Y-11935667D01*
X13006905Y-11935667D01*
X12987857Y-11945190D01*
X12978333Y-11954714D01*
X12968809Y-11973762D01*
X13206905Y-11859476D02*
X13225952Y-11859476D01*
X13245000Y-11869000D01*
X13254524Y-11878524D01*
X13264048Y-11897571D01*
X13273571Y-11935667D01*
X13273571Y-11983286D01*
X13264048Y-12021381D01*
X13254524Y-12040428D01*
X13245000Y-12049952D01*
X13225952Y-12059476D01*
X13206905Y-12059476D01*
X13187857Y-12049952D01*
X13178333Y-12040428D01*
X13168809Y-12021381D01*
X13159286Y-11983286D01*
X13159286Y-11935667D01*
X13168809Y-11897571D01*
X13178333Y-11878524D01*
X13187857Y-11869000D01*
X13206905Y-11859476D01*
X13397381Y-11859476D02*
X13416428Y-11859476D01*
X13435476Y-11869000D01*
X13445000Y-11878524D01*
X13454524Y-11897571D01*
X13464048Y-11935667D01*
X13464048Y-11983286D01*
X13454524Y-12021381D01*
X13445000Y-12040428D01*
X13435476Y-12049952D01*
X13416428Y-12059476D01*
X13397381Y-12059476D01*
X13378333Y-12049952D01*
X13368809Y-12040428D01*
X13359286Y-12021381D01*
X13349762Y-11983286D01*
X13349762Y-11935667D01*
X13359286Y-11897571D01*
X13368809Y-11878524D01*
X13378333Y-11869000D01*
X13397381Y-11859476D01*
X13549762Y-12059476D02*
X13549762Y-11926143D01*
X13549762Y-11945190D02*
X13559286Y-11935667D01*
X13578333Y-11926143D01*
X13606905Y-11926143D01*
X13625952Y-11935667D01*
X13635476Y-11954714D01*
X13635476Y-12059476D01*
X13635476Y-11954714D02*
X13645000Y-11935667D01*
X13664048Y-11926143D01*
X13692619Y-11926143D01*
X13711667Y-11935667D01*
X13721190Y-11954714D01*
X13721190Y-12059476D01*
X13816428Y-12059476D02*
X13816428Y-11926143D01*
X13816428Y-11945190D02*
X13825952Y-11935667D01*
X13845000Y-11926143D01*
X13873571Y-11926143D01*
X13892619Y-11935667D01*
X13902143Y-11954714D01*
X13902143Y-12059476D01*
X13902143Y-11954714D02*
X13911667Y-11935667D01*
X13930714Y-11926143D01*
X13959286Y-11926143D01*
X13978333Y-11935667D01*
X13987857Y-11954714D01*
X13987857Y-12059476D01*
X14378333Y-11849952D02*
X14206905Y-12107095D01*
X14635476Y-11859476D02*
X14654524Y-11859476D01*
X14673571Y-11869000D01*
X14683095Y-11878524D01*
X14692619Y-11897571D01*
X14702143Y-11935667D01*
X14702143Y-11983286D01*
X14692619Y-12021381D01*
X14683095Y-12040428D01*
X14673571Y-12049952D01*
X14654524Y-12059476D01*
X14635476Y-12059476D01*
X14616428Y-12049952D01*
X14606905Y-12040428D01*
X14597381Y-12021381D01*
X14587857Y-11983286D01*
X14587857Y-11935667D01*
X14597381Y-11897571D01*
X14606905Y-11878524D01*
X14616428Y-11869000D01*
X14635476Y-11859476D01*
X14787857Y-12040428D02*
X14797381Y-12049952D01*
X14787857Y-12059476D01*
X14778333Y-12049952D01*
X14787857Y-12040428D01*
X14787857Y-12059476D01*
X14921190Y-11859476D02*
X14940238Y-11859476D01*
X14959286Y-11869000D01*
X14968809Y-11878524D01*
X14978333Y-11897571D01*
X14987857Y-11935667D01*
X14987857Y-11983286D01*
X14978333Y-12021381D01*
X14968809Y-12040428D01*
X14959286Y-12049952D01*
X14940238Y-12059476D01*
X14921190Y-12059476D01*
X14902143Y-12049952D01*
X14892619Y-12040428D01*
X14883095Y-12021381D01*
X14873571Y-11983286D01*
X14873571Y-11935667D01*
X14883095Y-11897571D01*
X14892619Y-11878524D01*
X14902143Y-11869000D01*
X14921190Y-11859476D01*
X15064048Y-11878524D02*
X15073571Y-11869000D01*
X15092619Y-11859476D01*
X15140238Y-11859476D01*
X15159286Y-11869000D01*
X15168809Y-11878524D01*
X15178333Y-11897571D01*
X15178333Y-11916619D01*
X15168809Y-11945190D01*
X15054524Y-12059476D01*
X15178333Y-12059476D01*
X15245000Y-11859476D02*
X15368809Y-11859476D01*
X15302143Y-11935667D01*
X15330714Y-11935667D01*
X15349762Y-11945190D01*
X15359286Y-11954714D01*
X15368809Y-11973762D01*
X15368809Y-12021381D01*
X15359286Y-12040428D01*
X15349762Y-12049952D01*
X15330714Y-12059476D01*
X15273571Y-12059476D01*
X15254524Y-12049952D01*
X15245000Y-12040428D01*
X15540238Y-11859476D02*
X15502143Y-11859476D01*
X15483095Y-11869000D01*
X15473571Y-11878524D01*
X15454524Y-11907095D01*
X15445000Y-11945190D01*
X15445000Y-12021381D01*
X15454524Y-12040428D01*
X15464048Y-12049952D01*
X15483095Y-12059476D01*
X15521190Y-12059476D01*
X15540238Y-12049952D01*
X15549762Y-12040428D01*
X15559286Y-12021381D01*
X15559286Y-11973762D01*
X15549762Y-11954714D01*
X15540238Y-11945190D01*
X15521190Y-11935667D01*
X15483095Y-11935667D01*
X15464048Y-11945190D01*
X15454524Y-11954714D01*
X15445000Y-11973762D01*
X15635476Y-11859476D02*
X15635476Y-11897571D01*
X15711667Y-11859476D02*
X15711667Y-11897571D01*
X16006905Y-12135667D02*
X15997381Y-12126143D01*
X15978333Y-12097571D01*
X15968809Y-12078524D01*
X15959286Y-12049952D01*
X15949762Y-12002333D01*
X15949762Y-11964238D01*
X15959286Y-11916619D01*
X15968809Y-11888048D01*
X15978333Y-11869000D01*
X15997381Y-11840428D01*
X16006905Y-11830905D01*
X16121190Y-11859476D02*
X16140238Y-11859476D01*
X16159286Y-11869000D01*
X16168809Y-11878524D01*
X16178333Y-11897571D01*
X16187857Y-11935667D01*
X16187857Y-11983286D01*
X16178333Y-12021381D01*
X16168809Y-12040428D01*
X16159286Y-12049952D01*
X16140238Y-12059476D01*
X16121190Y-12059476D01*
X16102143Y-12049952D01*
X16092619Y-12040428D01*
X16083095Y-12021381D01*
X16073571Y-11983286D01*
X16073571Y-11935667D01*
X16083095Y-11897571D01*
X16092619Y-11878524D01*
X16102143Y-11869000D01*
X16121190Y-11859476D01*
X16425952Y-12059476D02*
X16425952Y-11859476D01*
X16511667Y-12059476D02*
X16511667Y-11954714D01*
X16502143Y-11935667D01*
X16483095Y-11926143D01*
X16454524Y-11926143D01*
X16435476Y-11935667D01*
X16425952Y-11945190D01*
X16635476Y-12059476D02*
X16616428Y-12049952D01*
X16606905Y-12040428D01*
X16597381Y-12021381D01*
X16597381Y-11964238D01*
X16606905Y-11945190D01*
X16616428Y-11935667D01*
X16635476Y-11926143D01*
X16664048Y-11926143D01*
X16683095Y-11935667D01*
X16692619Y-11945190D01*
X16702143Y-11964238D01*
X16702143Y-12021381D01*
X16692619Y-12040428D01*
X16683095Y-12049952D01*
X16664048Y-12059476D01*
X16635476Y-12059476D01*
X16816429Y-12059476D02*
X16797381Y-12049952D01*
X16787857Y-12030905D01*
X16787857Y-11859476D01*
X16968810Y-12049952D02*
X16949762Y-12059476D01*
X16911667Y-12059476D01*
X16892619Y-12049952D01*
X16883095Y-12030905D01*
X16883095Y-11954714D01*
X16892619Y-11935667D01*
X16911667Y-11926143D01*
X16949762Y-11926143D01*
X16968810Y-11935667D01*
X16978333Y-11954714D01*
X16978333Y-11973762D01*
X16883095Y-11992809D01*
X17054524Y-12049952D02*
X17073571Y-12059476D01*
X17111667Y-12059476D01*
X17130714Y-12049952D01*
X17140238Y-12030905D01*
X17140238Y-12021381D01*
X17130714Y-12002333D01*
X17111667Y-11992809D01*
X17083095Y-11992809D01*
X17064048Y-11983286D01*
X17054524Y-11964238D01*
X17054524Y-11954714D01*
X17064048Y-11935667D01*
X17083095Y-11926143D01*
X17111667Y-11926143D01*
X17130714Y-11935667D01*
X17378333Y-11983286D02*
X17530714Y-11983286D01*
X17454524Y-12059476D02*
X17454524Y-11907095D01*
X17864048Y-11926143D02*
X17864048Y-12059476D01*
X17816429Y-11849952D02*
X17768810Y-11992809D01*
X17892619Y-11992809D01*
X18111667Y-12049952D02*
X18130714Y-12059476D01*
X18168810Y-12059476D01*
X18187857Y-12049952D01*
X18197381Y-12030905D01*
X18197381Y-12021381D01*
X18187857Y-12002333D01*
X18168810Y-11992809D01*
X18140238Y-11992809D01*
X18121190Y-11983286D01*
X18111667Y-11964238D01*
X18111667Y-11954714D01*
X18121190Y-11935667D01*
X18140238Y-11926143D01*
X18168810Y-11926143D01*
X18187857Y-11935667D01*
X18311667Y-12059476D02*
X18292619Y-12049952D01*
X18283095Y-12030905D01*
X18283095Y-11859476D01*
X18416429Y-12059476D02*
X18397381Y-12049952D01*
X18387857Y-12040428D01*
X18378333Y-12021381D01*
X18378333Y-11964238D01*
X18387857Y-11945190D01*
X18397381Y-11935667D01*
X18416429Y-11926143D01*
X18445000Y-11926143D01*
X18464048Y-11935667D01*
X18473571Y-11945190D01*
X18483095Y-11964238D01*
X18483095Y-12021381D01*
X18473571Y-12040428D01*
X18464048Y-12049952D01*
X18445000Y-12059476D01*
X18416429Y-12059476D01*
X18540238Y-11926143D02*
X18616429Y-11926143D01*
X18568810Y-11859476D02*
X18568810Y-12030905D01*
X18578333Y-12049952D01*
X18597381Y-12059476D01*
X18616429Y-12059476D01*
X18673571Y-12049952D02*
X18692619Y-12059476D01*
X18730714Y-12059476D01*
X18749762Y-12049952D01*
X18759286Y-12030905D01*
X18759286Y-12021381D01*
X18749762Y-12002333D01*
X18730714Y-11992809D01*
X18702143Y-11992809D01*
X18683095Y-11983286D01*
X18673571Y-11964238D01*
X18673571Y-11954714D01*
X18683095Y-11935667D01*
X18702143Y-11926143D01*
X18730714Y-11926143D01*
X18749762Y-11935667D01*
X18825952Y-12135667D02*
X18835476Y-12126143D01*
X18854524Y-12097571D01*
X18864048Y-12078524D01*
X18873571Y-12049952D01*
X18883095Y-12002333D01*
X18883095Y-11964238D01*
X18873571Y-11916619D01*
X18864048Y-11888048D01*
X18854524Y-11869000D01*
X18835476Y-11840428D01*
X18825952Y-11830905D01*
D14*
X12402500Y-12200500D02*
X12402500Y-12265500D01*
X12370000Y-12233000D02*
X12435000Y-12233000D01*
D11*
X12730714Y-12123476D02*
X12749762Y-12123476D01*
X12768809Y-12133000D01*
X12778333Y-12142524D01*
X12787857Y-12161571D01*
X12797381Y-12199667D01*
X12797381Y-12247286D01*
X12787857Y-12285381D01*
X12778333Y-12304428D01*
X12768809Y-12313952D01*
X12749762Y-12323476D01*
X12730714Y-12323476D01*
X12711667Y-12313952D01*
X12702143Y-12304428D01*
X12692619Y-12285381D01*
X12683095Y-12247286D01*
X12683095Y-12199667D01*
X12692619Y-12161571D01*
X12702143Y-12142524D01*
X12711667Y-12133000D01*
X12730714Y-12123476D01*
X12883095Y-12304428D02*
X12892619Y-12313952D01*
X12883095Y-12323476D01*
X12873571Y-12313952D01*
X12883095Y-12304428D01*
X12883095Y-12323476D01*
X13064048Y-12123476D02*
X13025952Y-12123476D01*
X13006905Y-12133000D01*
X12997381Y-12142524D01*
X12978333Y-12171095D01*
X12968809Y-12209190D01*
X12968809Y-12285381D01*
X12978333Y-12304428D01*
X12987857Y-12313952D01*
X13006905Y-12323476D01*
X13045000Y-12323476D01*
X13064048Y-12313952D01*
X13073571Y-12304428D01*
X13083095Y-12285381D01*
X13083095Y-12237762D01*
X13073571Y-12218714D01*
X13064048Y-12209190D01*
X13045000Y-12199667D01*
X13006905Y-12199667D01*
X12987857Y-12209190D01*
X12978333Y-12218714D01*
X12968809Y-12237762D01*
X13264048Y-12123476D02*
X13168809Y-12123476D01*
X13159286Y-12218714D01*
X13168809Y-12209190D01*
X13187857Y-12199667D01*
X13235476Y-12199667D01*
X13254524Y-12209190D01*
X13264048Y-12218714D01*
X13273571Y-12237762D01*
X13273571Y-12285381D01*
X13264048Y-12304428D01*
X13254524Y-12313952D01*
X13235476Y-12323476D01*
X13187857Y-12323476D01*
X13168809Y-12313952D01*
X13159286Y-12304428D01*
X13397381Y-12123476D02*
X13416428Y-12123476D01*
X13435476Y-12133000D01*
X13445000Y-12142524D01*
X13454524Y-12161571D01*
X13464048Y-12199667D01*
X13464048Y-12247286D01*
X13454524Y-12285381D01*
X13445000Y-12304428D01*
X13435476Y-12313952D01*
X13416428Y-12323476D01*
X13397381Y-12323476D01*
X13378333Y-12313952D01*
X13368809Y-12304428D01*
X13359286Y-12285381D01*
X13349762Y-12247286D01*
X13349762Y-12199667D01*
X13359286Y-12161571D01*
X13368809Y-12142524D01*
X13378333Y-12133000D01*
X13397381Y-12123476D01*
X13549762Y-12323476D02*
X13549762Y-12190143D01*
X13549762Y-12209190D02*
X13559286Y-12199667D01*
X13578333Y-12190143D01*
X13606905Y-12190143D01*
X13625952Y-12199667D01*
X13635476Y-12218714D01*
X13635476Y-12323476D01*
X13635476Y-12218714D02*
X13645000Y-12199667D01*
X13664048Y-12190143D01*
X13692619Y-12190143D01*
X13711667Y-12199667D01*
X13721190Y-12218714D01*
X13721190Y-12323476D01*
X13816428Y-12323476D02*
X13816428Y-12190143D01*
X13816428Y-12209190D02*
X13825952Y-12199667D01*
X13845000Y-12190143D01*
X13873571Y-12190143D01*
X13892619Y-12199667D01*
X13902143Y-12218714D01*
X13902143Y-12323476D01*
X13902143Y-12218714D02*
X13911667Y-12199667D01*
X13930714Y-12190143D01*
X13959286Y-12190143D01*
X13978333Y-12199667D01*
X13987857Y-12218714D01*
X13987857Y-12323476D01*
X14378333Y-12113952D02*
X14206905Y-12371095D01*
X14635476Y-12123476D02*
X14654524Y-12123476D01*
X14673571Y-12133000D01*
X14683095Y-12142524D01*
X14692619Y-12161571D01*
X14702143Y-12199667D01*
X14702143Y-12247286D01*
X14692619Y-12285381D01*
X14683095Y-12304428D01*
X14673571Y-12313952D01*
X14654524Y-12323476D01*
X14635476Y-12323476D01*
X14616428Y-12313952D01*
X14606905Y-12304428D01*
X14597381Y-12285381D01*
X14587857Y-12247286D01*
X14587857Y-12199667D01*
X14597381Y-12161571D01*
X14606905Y-12142524D01*
X14616428Y-12133000D01*
X14635476Y-12123476D01*
X14787857Y-12304428D02*
X14797381Y-12313952D01*
X14787857Y-12323476D01*
X14778333Y-12313952D01*
X14787857Y-12304428D01*
X14787857Y-12323476D01*
X14921190Y-12123476D02*
X14940238Y-12123476D01*
X14959286Y-12133000D01*
X14968809Y-12142524D01*
X14978333Y-12161571D01*
X14987857Y-12199667D01*
X14987857Y-12247286D01*
X14978333Y-12285381D01*
X14968809Y-12304428D01*
X14959286Y-12313952D01*
X14940238Y-12323476D01*
X14921190Y-12323476D01*
X14902143Y-12313952D01*
X14892619Y-12304428D01*
X14883095Y-12285381D01*
X14873571Y-12247286D01*
X14873571Y-12199667D01*
X14883095Y-12161571D01*
X14892619Y-12142524D01*
X14902143Y-12133000D01*
X14921190Y-12123476D01*
X15064048Y-12142524D02*
X15073571Y-12133000D01*
X15092619Y-12123476D01*
X15140238Y-12123476D01*
X15159286Y-12133000D01*
X15168809Y-12142524D01*
X15178333Y-12161571D01*
X15178333Y-12180619D01*
X15168809Y-12209190D01*
X15054524Y-12323476D01*
X15178333Y-12323476D01*
X15359286Y-12123476D02*
X15264048Y-12123476D01*
X15254524Y-12218714D01*
X15264048Y-12209190D01*
X15283095Y-12199667D01*
X15330714Y-12199667D01*
X15349762Y-12209190D01*
X15359286Y-12218714D01*
X15368809Y-12237762D01*
X15368809Y-12285381D01*
X15359286Y-12304428D01*
X15349762Y-12313952D01*
X15330714Y-12323476D01*
X15283095Y-12323476D01*
X15264048Y-12313952D01*
X15254524Y-12304428D01*
X15540238Y-12123476D02*
X15502143Y-12123476D01*
X15483095Y-12133000D01*
X15473571Y-12142524D01*
X15454524Y-12171095D01*
X15445000Y-12209190D01*
X15445000Y-12285381D01*
X15454524Y-12304428D01*
X15464048Y-12313952D01*
X15483095Y-12323476D01*
X15521190Y-12323476D01*
X15540238Y-12313952D01*
X15549762Y-12304428D01*
X15559286Y-12285381D01*
X15559286Y-12237762D01*
X15549762Y-12218714D01*
X15540238Y-12209190D01*
X15521190Y-12199667D01*
X15483095Y-12199667D01*
X15464048Y-12209190D01*
X15454524Y-12218714D01*
X15445000Y-12237762D01*
X15635476Y-12123476D02*
X15635476Y-12161571D01*
X15711667Y-12123476D02*
X15711667Y-12161571D01*
X16006905Y-12399667D02*
X15997381Y-12390143D01*
X15978333Y-12361571D01*
X15968809Y-12342524D01*
X15959286Y-12313952D01*
X15949762Y-12266333D01*
X15949762Y-12228238D01*
X15959286Y-12180619D01*
X15968809Y-12152048D01*
X15978333Y-12133000D01*
X15997381Y-12104428D01*
X16006905Y-12094905D01*
X16073571Y-12142524D02*
X16083095Y-12133000D01*
X16102143Y-12123476D01*
X16149762Y-12123476D01*
X16168809Y-12133000D01*
X16178333Y-12142524D01*
X16187857Y-12161571D01*
X16187857Y-12180619D01*
X16178333Y-12209190D01*
X16064048Y-12323476D01*
X16187857Y-12323476D01*
X16425952Y-12323476D02*
X16425952Y-12123476D01*
X16511667Y-12323476D02*
X16511667Y-12218714D01*
X16502143Y-12199667D01*
X16483095Y-12190143D01*
X16454524Y-12190143D01*
X16435476Y-12199667D01*
X16425952Y-12209190D01*
X16635476Y-12323476D02*
X16616428Y-12313952D01*
X16606905Y-12304428D01*
X16597381Y-12285381D01*
X16597381Y-12228238D01*
X16606905Y-12209190D01*
X16616428Y-12199667D01*
X16635476Y-12190143D01*
X16664048Y-12190143D01*
X16683095Y-12199667D01*
X16692619Y-12209190D01*
X16702143Y-12228238D01*
X16702143Y-12285381D01*
X16692619Y-12304428D01*
X16683095Y-12313952D01*
X16664048Y-12323476D01*
X16635476Y-12323476D01*
X16816429Y-12323476D02*
X16797381Y-12313952D01*
X16787857Y-12294905D01*
X16787857Y-12123476D01*
X16968810Y-12313952D02*
X16949762Y-12323476D01*
X16911667Y-12323476D01*
X16892619Y-12313952D01*
X16883095Y-12294905D01*
X16883095Y-12218714D01*
X16892619Y-12199667D01*
X16911667Y-12190143D01*
X16949762Y-12190143D01*
X16968810Y-12199667D01*
X16978333Y-12218714D01*
X16978333Y-12237762D01*
X16883095Y-12256809D01*
X17054524Y-12313952D02*
X17073571Y-12323476D01*
X17111667Y-12323476D01*
X17130714Y-12313952D01*
X17140238Y-12294905D01*
X17140238Y-12285381D01*
X17130714Y-12266333D01*
X17111667Y-12256809D01*
X17083095Y-12256809D01*
X17064048Y-12247286D01*
X17054524Y-12228238D01*
X17054524Y-12218714D01*
X17064048Y-12199667D01*
X17083095Y-12190143D01*
X17111667Y-12190143D01*
X17130714Y-12199667D01*
X17206905Y-12399667D02*
X17216429Y-12390143D01*
X17235476Y-12361571D01*
X17245000Y-12342524D01*
X17254524Y-12313952D01*
X17264048Y-12266333D01*
X17264048Y-12228238D01*
X17254524Y-12180619D01*
X17245000Y-12152048D01*
X17235476Y-12133000D01*
X17216429Y-12104428D01*
X17206905Y-12094905D01*
D15*
X12423284Y-12525284D02*
X12423284Y-12468715D01*
X12366715Y-12468715D01*
X12366715Y-12525284D01*
X12423284Y-12525284D01*
D11*
X12730714Y-12387476D02*
X12749762Y-12387476D01*
X12768809Y-12397000D01*
X12778333Y-12406524D01*
X12787857Y-12425571D01*
X12797381Y-12463667D01*
X12797381Y-12511286D01*
X12787857Y-12549381D01*
X12778333Y-12568428D01*
X12768809Y-12577952D01*
X12749762Y-12587476D01*
X12730714Y-12587476D01*
X12711667Y-12577952D01*
X12702143Y-12568428D01*
X12692619Y-12549381D01*
X12683095Y-12511286D01*
X12683095Y-12463667D01*
X12692619Y-12425571D01*
X12702143Y-12406524D01*
X12711667Y-12397000D01*
X12730714Y-12387476D01*
X12883095Y-12568428D02*
X12892619Y-12577952D01*
X12883095Y-12587476D01*
X12873571Y-12577952D01*
X12883095Y-12568428D01*
X12883095Y-12587476D01*
X13006905Y-12473190D02*
X12987857Y-12463667D01*
X12978333Y-12454143D01*
X12968809Y-12435095D01*
X12968809Y-12425571D01*
X12978333Y-12406524D01*
X12987857Y-12397000D01*
X13006905Y-12387476D01*
X13045000Y-12387476D01*
X13064048Y-12397000D01*
X13073571Y-12406524D01*
X13083095Y-12425571D01*
X13083095Y-12435095D01*
X13073571Y-12454143D01*
X13064048Y-12463667D01*
X13045000Y-12473190D01*
X13006905Y-12473190D01*
X12987857Y-12482714D01*
X12978333Y-12492238D01*
X12968809Y-12511286D01*
X12968809Y-12549381D01*
X12978333Y-12568428D01*
X12987857Y-12577952D01*
X13006905Y-12587476D01*
X13045000Y-12587476D01*
X13064048Y-12577952D01*
X13073571Y-12568428D01*
X13083095Y-12549381D01*
X13083095Y-12511286D01*
X13073571Y-12492238D01*
X13064048Y-12482714D01*
X13045000Y-12473190D01*
X13206905Y-12387476D02*
X13225952Y-12387476D01*
X13245000Y-12397000D01*
X13254524Y-12406524D01*
X13264048Y-12425571D01*
X13273571Y-12463667D01*
X13273571Y-12511286D01*
X13264048Y-12549381D01*
X13254524Y-12568428D01*
X13245000Y-12577952D01*
X13225952Y-12587476D01*
X13206905Y-12587476D01*
X13187857Y-12577952D01*
X13178333Y-12568428D01*
X13168809Y-12549381D01*
X13159286Y-12511286D01*
X13159286Y-12463667D01*
X13168809Y-12425571D01*
X13178333Y-12406524D01*
X13187857Y-12397000D01*
X13206905Y-12387476D01*
X13397381Y-12387476D02*
X13416428Y-12387476D01*
X13435476Y-12397000D01*
X13445000Y-12406524D01*
X13454524Y-12425571D01*
X13464048Y-12463667D01*
X13464048Y-12511286D01*
X13454524Y-12549381D01*
X13445000Y-12568428D01*
X13435476Y-12577952D01*
X13416428Y-12587476D01*
X13397381Y-12587476D01*
X13378333Y-12577952D01*
X13368809Y-12568428D01*
X13359286Y-12549381D01*
X13349762Y-12511286D01*
X13349762Y-12463667D01*
X13359286Y-12425571D01*
X13368809Y-12406524D01*
X13378333Y-12397000D01*
X13397381Y-12387476D01*
X13549762Y-12587476D02*
X13549762Y-12454143D01*
X13549762Y-12473190D02*
X13559286Y-12463667D01*
X13578333Y-12454143D01*
X13606905Y-12454143D01*
X13625952Y-12463667D01*
X13635476Y-12482714D01*
X13635476Y-12587476D01*
X13635476Y-12482714D02*
X13645000Y-12463667D01*
X13664048Y-12454143D01*
X13692619Y-12454143D01*
X13711667Y-12463667D01*
X13721190Y-12482714D01*
X13721190Y-12587476D01*
X13816428Y-12587476D02*
X13816428Y-12454143D01*
X13816428Y-12473190D02*
X13825952Y-12463667D01*
X13845000Y-12454143D01*
X13873571Y-12454143D01*
X13892619Y-12463667D01*
X13902143Y-12482714D01*
X13902143Y-12587476D01*
X13902143Y-12482714D02*
X13911667Y-12463667D01*
X13930714Y-12454143D01*
X13959286Y-12454143D01*
X13978333Y-12463667D01*
X13987857Y-12482714D01*
X13987857Y-12587476D01*
X14378333Y-12377952D02*
X14206905Y-12635095D01*
X14635476Y-12387476D02*
X14654524Y-12387476D01*
X14673571Y-12397000D01*
X14683095Y-12406524D01*
X14692619Y-12425571D01*
X14702143Y-12463667D01*
X14702143Y-12511286D01*
X14692619Y-12549381D01*
X14683095Y-12568428D01*
X14673571Y-12577952D01*
X14654524Y-12587476D01*
X14635476Y-12587476D01*
X14616428Y-12577952D01*
X14606905Y-12568428D01*
X14597381Y-12549381D01*
X14587857Y-12511286D01*
X14587857Y-12463667D01*
X14597381Y-12425571D01*
X14606905Y-12406524D01*
X14616428Y-12397000D01*
X14635476Y-12387476D01*
X14787857Y-12568428D02*
X14797381Y-12577952D01*
X14787857Y-12587476D01*
X14778333Y-12577952D01*
X14787857Y-12568428D01*
X14787857Y-12587476D01*
X14921190Y-12387476D02*
X14940238Y-12387476D01*
X14959286Y-12397000D01*
X14968809Y-12406524D01*
X14978333Y-12425571D01*
X14987857Y-12463667D01*
X14987857Y-12511286D01*
X14978333Y-12549381D01*
X14968809Y-12568428D01*
X14959286Y-12577952D01*
X14940238Y-12587476D01*
X14921190Y-12587476D01*
X14902143Y-12577952D01*
X14892619Y-12568428D01*
X14883095Y-12549381D01*
X14873571Y-12511286D01*
X14873571Y-12463667D01*
X14883095Y-12425571D01*
X14892619Y-12406524D01*
X14902143Y-12397000D01*
X14921190Y-12387476D01*
X15054524Y-12387476D02*
X15178333Y-12387476D01*
X15111667Y-12463667D01*
X15140238Y-12463667D01*
X15159286Y-12473190D01*
X15168809Y-12482714D01*
X15178333Y-12501762D01*
X15178333Y-12549381D01*
X15168809Y-12568428D01*
X15159286Y-12577952D01*
X15140238Y-12587476D01*
X15083095Y-12587476D01*
X15064048Y-12577952D01*
X15054524Y-12568428D01*
X15368809Y-12587476D02*
X15254524Y-12587476D01*
X15311667Y-12587476D02*
X15311667Y-12387476D01*
X15292619Y-12416048D01*
X15273571Y-12435095D01*
X15254524Y-12444619D01*
X15549762Y-12387476D02*
X15454524Y-12387476D01*
X15445000Y-12482714D01*
X15454524Y-12473190D01*
X15473571Y-12463667D01*
X15521190Y-12463667D01*
X15540238Y-12473190D01*
X15549762Y-12482714D01*
X15559286Y-12501762D01*
X15559286Y-12549381D01*
X15549762Y-12568428D01*
X15540238Y-12577952D01*
X15521190Y-12587476D01*
X15473571Y-12587476D01*
X15454524Y-12577952D01*
X15445000Y-12568428D01*
X15635476Y-12387476D02*
X15635476Y-12425571D01*
X15711667Y-12387476D02*
X15711667Y-12425571D01*
X16006905Y-12663667D02*
X15997381Y-12654143D01*
X15978333Y-12625571D01*
X15968809Y-12606524D01*
X15959286Y-12577952D01*
X15949762Y-12530333D01*
X15949762Y-12492238D01*
X15959286Y-12444619D01*
X15968809Y-12416048D01*
X15978333Y-12397000D01*
X15997381Y-12368428D01*
X16006905Y-12358905D01*
X16168809Y-12387476D02*
X16130714Y-12387476D01*
X16111667Y-12397000D01*
X16102143Y-12406524D01*
X16083095Y-12435095D01*
X16073571Y-12473190D01*
X16073571Y-12549381D01*
X16083095Y-12568428D01*
X16092619Y-12577952D01*
X16111667Y-12587476D01*
X16149762Y-12587476D01*
X16168809Y-12577952D01*
X16178333Y-12568428D01*
X16187857Y-12549381D01*
X16187857Y-12501762D01*
X16178333Y-12482714D01*
X16168809Y-12473190D01*
X16149762Y-12463667D01*
X16111667Y-12463667D01*
X16092619Y-12473190D01*
X16083095Y-12482714D01*
X16073571Y-12501762D01*
X16425952Y-12587476D02*
X16425952Y-12387476D01*
X16511667Y-12587476D02*
X16511667Y-12482714D01*
X16502143Y-12463667D01*
X16483095Y-12454143D01*
X16454524Y-12454143D01*
X16435476Y-12463667D01*
X16425952Y-12473190D01*
X16635476Y-12587476D02*
X16616428Y-12577952D01*
X16606905Y-12568428D01*
X16597381Y-12549381D01*
X16597381Y-12492238D01*
X16606905Y-12473190D01*
X16616428Y-12463667D01*
X16635476Y-12454143D01*
X16664048Y-12454143D01*
X16683095Y-12463667D01*
X16692619Y-12473190D01*
X16702143Y-12492238D01*
X16702143Y-12549381D01*
X16692619Y-12568428D01*
X16683095Y-12577952D01*
X16664048Y-12587476D01*
X16635476Y-12587476D01*
X16816429Y-12587476D02*
X16797381Y-12577952D01*
X16787857Y-12558905D01*
X16787857Y-12387476D01*
X16968810Y-12577952D02*
X16949762Y-12587476D01*
X16911667Y-12587476D01*
X16892619Y-12577952D01*
X16883095Y-12558905D01*
X16883095Y-12482714D01*
X16892619Y-12463667D01*
X16911667Y-12454143D01*
X16949762Y-12454143D01*
X16968810Y-12463667D01*
X16978333Y-12482714D01*
X16978333Y-12501762D01*
X16883095Y-12520809D01*
X17054524Y-12577952D02*
X17073571Y-12587476D01*
X17111667Y-12587476D01*
X17130714Y-12577952D01*
X17140238Y-12558905D01*
X17140238Y-12549381D01*
X17130714Y-12530333D01*
X17111667Y-12520809D01*
X17083095Y-12520809D01*
X17064048Y-12511286D01*
X17054524Y-12492238D01*
X17054524Y-12482714D01*
X17064048Y-12463667D01*
X17083095Y-12454143D01*
X17111667Y-12454143D01*
X17130714Y-12463667D01*
X17206905Y-12663667D02*
X17216429Y-12654143D01*
X17235476Y-12625571D01*
X17245000Y-12606524D01*
X17254524Y-12577952D01*
X17264048Y-12530333D01*
X17264048Y-12492238D01*
X17254524Y-12444619D01*
X17245000Y-12416048D01*
X17235476Y-12397000D01*
X17216429Y-12368428D01*
X17206905Y-12358905D01*
D16*
X12385000Y-12811000D02*
X12435000Y-12761000D01*
X12385000Y-12711000D01*
X12335000Y-12761000D01*
X12385000Y-12811000D01*
D11*
X12797381Y-12851476D02*
X12683095Y-12851476D01*
X12740238Y-12851476D02*
X12740238Y-12651476D01*
X12721190Y-12680048D01*
X12702143Y-12699095D01*
X12683095Y-12708619D01*
X12883095Y-12832428D02*
X12892619Y-12841952D01*
X12883095Y-12851476D01*
X12873571Y-12841952D01*
X12883095Y-12832428D01*
X12883095Y-12851476D01*
X13016428Y-12651476D02*
X13035476Y-12651476D01*
X13054524Y-12661000D01*
X13064048Y-12670524D01*
X13073571Y-12689571D01*
X13083095Y-12727667D01*
X13083095Y-12775286D01*
X13073571Y-12813381D01*
X13064048Y-12832428D01*
X13054524Y-12841952D01*
X13035476Y-12851476D01*
X13016428Y-12851476D01*
X12997381Y-12841952D01*
X12987857Y-12832428D01*
X12978333Y-12813381D01*
X12968809Y-12775286D01*
X12968809Y-12727667D01*
X12978333Y-12689571D01*
X12987857Y-12670524D01*
X12997381Y-12661000D01*
X13016428Y-12651476D01*
X13206905Y-12651476D02*
X13225952Y-12651476D01*
X13245000Y-12661000D01*
X13254524Y-12670524D01*
X13264048Y-12689571D01*
X13273571Y-12727667D01*
X13273571Y-12775286D01*
X13264048Y-12813381D01*
X13254524Y-12832428D01*
X13245000Y-12841952D01*
X13225952Y-12851476D01*
X13206905Y-12851476D01*
X13187857Y-12841952D01*
X13178333Y-12832428D01*
X13168809Y-12813381D01*
X13159286Y-12775286D01*
X13159286Y-12727667D01*
X13168809Y-12689571D01*
X13178333Y-12670524D01*
X13187857Y-12661000D01*
X13206905Y-12651476D01*
X13397381Y-12651476D02*
X13416428Y-12651476D01*
X13435476Y-12661000D01*
X13445000Y-12670524D01*
X13454524Y-12689571D01*
X13464048Y-12727667D01*
X13464048Y-12775286D01*
X13454524Y-12813381D01*
X13445000Y-12832428D01*
X13435476Y-12841952D01*
X13416428Y-12851476D01*
X13397381Y-12851476D01*
X13378333Y-12841952D01*
X13368809Y-12832428D01*
X13359286Y-12813381D01*
X13349762Y-12775286D01*
X13349762Y-12727667D01*
X13359286Y-12689571D01*
X13368809Y-12670524D01*
X13378333Y-12661000D01*
X13397381Y-12651476D01*
X13549762Y-12851476D02*
X13549762Y-12718143D01*
X13549762Y-12737190D02*
X13559286Y-12727667D01*
X13578333Y-12718143D01*
X13606905Y-12718143D01*
X13625952Y-12727667D01*
X13635476Y-12746714D01*
X13635476Y-12851476D01*
X13635476Y-12746714D02*
X13645000Y-12727667D01*
X13664048Y-12718143D01*
X13692619Y-12718143D01*
X13711667Y-12727667D01*
X13721190Y-12746714D01*
X13721190Y-12851476D01*
X13816428Y-12851476D02*
X13816428Y-12718143D01*
X13816428Y-12737190D02*
X13825952Y-12727667D01*
X13845000Y-12718143D01*
X13873571Y-12718143D01*
X13892619Y-12727667D01*
X13902143Y-12746714D01*
X13902143Y-12851476D01*
X13902143Y-12746714D02*
X13911667Y-12727667D01*
X13930714Y-12718143D01*
X13959286Y-12718143D01*
X13978333Y-12727667D01*
X13987857Y-12746714D01*
X13987857Y-12851476D01*
X14378333Y-12641952D02*
X14206905Y-12899095D01*
X14635476Y-12651476D02*
X14654524Y-12651476D01*
X14673571Y-12661000D01*
X14683095Y-12670524D01*
X14692619Y-12689571D01*
X14702143Y-12727667D01*
X14702143Y-12775286D01*
X14692619Y-12813381D01*
X14683095Y-12832428D01*
X14673571Y-12841952D01*
X14654524Y-12851476D01*
X14635476Y-12851476D01*
X14616428Y-12841952D01*
X14606905Y-12832428D01*
X14597381Y-12813381D01*
X14587857Y-12775286D01*
X14587857Y-12727667D01*
X14597381Y-12689571D01*
X14606905Y-12670524D01*
X14616428Y-12661000D01*
X14635476Y-12651476D01*
X14787857Y-12832428D02*
X14797381Y-12841952D01*
X14787857Y-12851476D01*
X14778333Y-12841952D01*
X14787857Y-12832428D01*
X14787857Y-12851476D01*
X14921190Y-12651476D02*
X14940238Y-12651476D01*
X14959286Y-12661000D01*
X14968809Y-12670524D01*
X14978333Y-12689571D01*
X14987857Y-12727667D01*
X14987857Y-12775286D01*
X14978333Y-12813381D01*
X14968809Y-12832428D01*
X14959286Y-12841952D01*
X14940238Y-12851476D01*
X14921190Y-12851476D01*
X14902143Y-12841952D01*
X14892619Y-12832428D01*
X14883095Y-12813381D01*
X14873571Y-12775286D01*
X14873571Y-12727667D01*
X14883095Y-12689571D01*
X14892619Y-12670524D01*
X14902143Y-12661000D01*
X14921190Y-12651476D01*
X15054524Y-12651476D02*
X15178333Y-12651476D01*
X15111667Y-12727667D01*
X15140238Y-12727667D01*
X15159286Y-12737190D01*
X15168809Y-12746714D01*
X15178333Y-12765762D01*
X15178333Y-12813381D01*
X15168809Y-12832428D01*
X15159286Y-12841952D01*
X15140238Y-12851476D01*
X15083095Y-12851476D01*
X15064048Y-12841952D01*
X15054524Y-12832428D01*
X15273571Y-12851476D02*
X15311667Y-12851476D01*
X15330714Y-12841952D01*
X15340238Y-12832428D01*
X15359286Y-12803857D01*
X15368809Y-12765762D01*
X15368809Y-12689571D01*
X15359286Y-12670524D01*
X15349762Y-12661000D01*
X15330714Y-12651476D01*
X15292619Y-12651476D01*
X15273571Y-12661000D01*
X15264048Y-12670524D01*
X15254524Y-12689571D01*
X15254524Y-12737190D01*
X15264048Y-12756238D01*
X15273571Y-12765762D01*
X15292619Y-12775286D01*
X15330714Y-12775286D01*
X15349762Y-12765762D01*
X15359286Y-12756238D01*
X15368809Y-12737190D01*
X15540238Y-12718143D02*
X15540238Y-12851476D01*
X15492619Y-12641952D02*
X15445000Y-12784809D01*
X15568809Y-12784809D01*
X15635476Y-12651476D02*
X15635476Y-12689571D01*
X15711667Y-12651476D02*
X15711667Y-12689571D01*
X16006905Y-12927667D02*
X15997381Y-12918143D01*
X15978333Y-12889571D01*
X15968809Y-12870524D01*
X15959286Y-12841952D01*
X15949762Y-12794333D01*
X15949762Y-12756238D01*
X15959286Y-12708619D01*
X15968809Y-12680048D01*
X15978333Y-12661000D01*
X15997381Y-12632428D01*
X16006905Y-12622905D01*
X16121190Y-12651476D02*
X16140238Y-12651476D01*
X16159286Y-12661000D01*
X16168809Y-12670524D01*
X16178333Y-12689571D01*
X16187857Y-12727667D01*
X16187857Y-12775286D01*
X16178333Y-12813381D01*
X16168809Y-12832428D01*
X16159286Y-12841952D01*
X16140238Y-12851476D01*
X16121190Y-12851476D01*
X16102143Y-12841952D01*
X16092619Y-12832428D01*
X16083095Y-12813381D01*
X16073571Y-12775286D01*
X16073571Y-12727667D01*
X16083095Y-12689571D01*
X16092619Y-12670524D01*
X16102143Y-12661000D01*
X16121190Y-12651476D01*
X16425952Y-12851476D02*
X16425952Y-12651476D01*
X16511667Y-12851476D02*
X16511667Y-12746714D01*
X16502143Y-12727667D01*
X16483095Y-12718143D01*
X16454524Y-12718143D01*
X16435476Y-12727667D01*
X16425952Y-12737190D01*
X16635476Y-12851476D02*
X16616428Y-12841952D01*
X16606905Y-12832428D01*
X16597381Y-12813381D01*
X16597381Y-12756238D01*
X16606905Y-12737190D01*
X16616428Y-12727667D01*
X16635476Y-12718143D01*
X16664048Y-12718143D01*
X16683095Y-12727667D01*
X16692619Y-12737190D01*
X16702143Y-12756238D01*
X16702143Y-12813381D01*
X16692619Y-12832428D01*
X16683095Y-12841952D01*
X16664048Y-12851476D01*
X16635476Y-12851476D01*
X16816429Y-12851476D02*
X16797381Y-12841952D01*
X16787857Y-12822905D01*
X16787857Y-12651476D01*
X16968810Y-12841952D02*
X16949762Y-12851476D01*
X16911667Y-12851476D01*
X16892619Y-12841952D01*
X16883095Y-12822905D01*
X16883095Y-12746714D01*
X16892619Y-12727667D01*
X16911667Y-12718143D01*
X16949762Y-12718143D01*
X16968810Y-12727667D01*
X16978333Y-12746714D01*
X16978333Y-12765762D01*
X16883095Y-12784809D01*
X17054524Y-12841952D02*
X17073571Y-12851476D01*
X17111667Y-12851476D01*
X17130714Y-12841952D01*
X17140238Y-12822905D01*
X17140238Y-12813381D01*
X17130714Y-12794333D01*
X17111667Y-12784809D01*
X17083095Y-12784809D01*
X17064048Y-12775286D01*
X17054524Y-12756238D01*
X17054524Y-12746714D01*
X17064048Y-12727667D01*
X17083095Y-12718143D01*
X17111667Y-12718143D01*
X17130714Y-12727667D01*
X17378333Y-12775286D02*
X17530714Y-12775286D01*
X17454524Y-12851476D02*
X17454524Y-12699095D01*
X17759286Y-12651476D02*
X17883095Y-12651476D01*
X17816429Y-12727667D01*
X17845000Y-12727667D01*
X17864048Y-12737190D01*
X17873571Y-12746714D01*
X17883095Y-12765762D01*
X17883095Y-12813381D01*
X17873571Y-12832428D01*
X17864048Y-12841952D01*
X17845000Y-12851476D01*
X17787857Y-12851476D01*
X17768810Y-12841952D01*
X17759286Y-12832428D01*
X18111667Y-12841952D02*
X18130714Y-12851476D01*
X18168810Y-12851476D01*
X18187857Y-12841952D01*
X18197381Y-12822905D01*
X18197381Y-12813381D01*
X18187857Y-12794333D01*
X18168810Y-12784809D01*
X18140238Y-12784809D01*
X18121190Y-12775286D01*
X18111667Y-12756238D01*
X18111667Y-12746714D01*
X18121190Y-12727667D01*
X18140238Y-12718143D01*
X18168810Y-12718143D01*
X18187857Y-12727667D01*
X18311667Y-12851476D02*
X18292619Y-12841952D01*
X18283095Y-12822905D01*
X18283095Y-12651476D01*
X18416429Y-12851476D02*
X18397381Y-12841952D01*
X18387857Y-12832428D01*
X18378333Y-12813381D01*
X18378333Y-12756238D01*
X18387857Y-12737190D01*
X18397381Y-12727667D01*
X18416429Y-12718143D01*
X18445000Y-12718143D01*
X18464048Y-12727667D01*
X18473571Y-12737190D01*
X18483095Y-12756238D01*
X18483095Y-12813381D01*
X18473571Y-12832428D01*
X18464048Y-12841952D01*
X18445000Y-12851476D01*
X18416429Y-12851476D01*
X18540238Y-12718143D02*
X18616429Y-12718143D01*
X18568810Y-12651476D02*
X18568810Y-12822905D01*
X18578333Y-12841952D01*
X18597381Y-12851476D01*
X18616429Y-12851476D01*
X18673571Y-12841952D02*
X18692619Y-12851476D01*
X18730714Y-12851476D01*
X18749762Y-12841952D01*
X18759286Y-12822905D01*
X18759286Y-12813381D01*
X18749762Y-12794333D01*
X18730714Y-12784809D01*
X18702143Y-12784809D01*
X18683095Y-12775286D01*
X18673571Y-12756238D01*
X18673571Y-12746714D01*
X18683095Y-12727667D01*
X18702143Y-12718143D01*
X18730714Y-12718143D01*
X18749762Y-12727667D01*
X18825952Y-12927667D02*
X18835476Y-12918143D01*
X18854524Y-12889571D01*
X18864048Y-12870524D01*
X18873571Y-12841952D01*
X18883095Y-12794333D01*
X18883095Y-12756238D01*
X18873571Y-12708619D01*
X18864048Y-12680048D01*
X18854524Y-12661000D01*
X18835476Y-12632428D01*
X18825952Y-12622905D01*
M02*
