M48
; DRILL file {KiCad (6.0.5)} date Sun Mar  9 20:54:08 2025
; FORMAT={-:-/ absolute / metric / decimal}
; #@! TF.CreationDate,2025-03-09T20:54:08+01:00
; #@! TF.GenerationSoftware,Kicad,Pcbnew,(6.0.5)
; #@! TF.FileFunction,Plated,1,2,PTH
FMAT,2
METRIC
; #@! TA.AperFunction,Plated,PTH,ViaDrill
T1C0.400
; #@! TA.AperFunction,Plated,PTH,ComponentDrill
T2C0.600
; #@! TA.AperFunction,Plated,PTH,ComponentDrill
T3C0.650
; #@! TA.AperFunction,Plated,PTH,ComponentDrill
T4C0.800
; #@! TA.AperFunction,Plated,PTH,ComponentDrill
T5C1.000
%
G90
G05
T1
X134.65Y-98.35
X134.8Y-107.0
X141.2Y-105.8
X141.97Y-100.57
X143.6Y-101.2
X145.0Y-106.0
X146.4Y-99.4
X147.8Y-103.4
X148.2Y-95.0
X148.4Y-102.0
X148.8Y-93.8
X151.0Y-105.6
X151.0Y-107.0
X151.262Y-100.689
X151.4Y-102.0
X151.414Y-103.396
X152.6Y-95.0
X158.2Y-99.8
X158.4Y-107.0
X159.4Y-101.6
T3
X140.75Y-99.0
X142.02Y-99.0
T4
X162.025Y-98.19
X162.025Y-104.99
X164.825Y-98.19
X164.825Y-100.29
X164.825Y-102.89
X164.825Y-104.99
T2
X127.45Y-97.28G85X126.85Y-97.28
G05
X127.45Y-105.92G85X126.85Y-105.92
G05
X131.88Y-97.28G85X130.78Y-97.28
G05
X131.88Y-105.92G85X130.78Y-105.92
G05
T5
X166.925Y-94.74G85X168.425Y-94.74
G05
X166.925Y-108.44G85X168.425Y-108.44
G05
X168.475Y-102.59G85X168.475Y-100.59
G05
T0
M30
