%TF.GenerationSoftware,KiCad,Pcbnew,(6.0.5)*%
%TF.CreationDate,2025-03-09T20:53:28+01:00*%
%TF.ProjectId,PS2_to_USB_Converter,5053325f-746f-45f5-9553-425f436f6e76,rev?*%
%TF.SameCoordinates,Original*%
%TF.FileFunction,Soldermask,Top*%
%TF.FilePolarity,Negative*%
%FSLAX46Y46*%
G04 Gerber Fmt 4.6, Leading zero omitted, Abs format (unit mm)*
G04 Created by KiCad (PCBNEW (6.0.5)) date 2025-03-09 20:53:28*
%MOMM*%
%LPD*%
G01*
G04 APERTURE LIST*
G04 Aperture macros list*
%AMRoundRect*
0 Rectangle with rounded corners*
0 $1 Rounding radius*
0 $2 $3 $4 $5 $6 $7 $8 $9 X,Y pos of 4 corners*
0 Add a 4 corners polygon primitive as box body*
4,1,4,$2,$3,$4,$5,$6,$7,$8,$9,$2,$3,0*
0 Add four circle primitives for the rounded corners*
1,1,$1+$1,$2,$3*
1,1,$1+$1,$4,$5*
1,1,$1+$1,$6,$7*
1,1,$1+$1,$8,$9*
0 Add four rect primitives between the rounded corners*
20,1,$1+$1,$2,$3,$4,$5,0*
20,1,$1+$1,$4,$5,$6,$7,0*
20,1,$1+$1,$6,$7,$8,$9,0*
20,1,$1+$1,$8,$9,$2,$3,0*%
G04 Aperture macros list end*
%ADD10RoundRect,0.150000X0.725000X0.150000X-0.725000X0.150000X-0.725000X-0.150000X0.725000X-0.150000X0*%
%ADD11RoundRect,0.243750X-0.243750X-0.456250X0.243750X-0.456250X0.243750X0.456250X-0.243750X0.456250X0*%
%ADD12RoundRect,0.250000X0.250000X0.475000X-0.250000X0.475000X-0.250000X-0.475000X0.250000X-0.475000X0*%
%ADD13RoundRect,0.250000X0.262500X0.450000X-0.262500X0.450000X-0.262500X-0.450000X0.262500X-0.450000X0*%
%ADD14RoundRect,0.150000X0.512500X0.150000X-0.512500X0.150000X-0.512500X-0.150000X0.512500X-0.150000X0*%
%ADD15C,0.650000*%
%ADD16R,1.450000X0.600000*%
%ADD17R,1.450000X0.300000*%
%ADD18O,1.600000X1.000000*%
%ADD19O,2.100000X1.000000*%
%ADD20RoundRect,0.150000X-0.587500X-0.150000X0.587500X-0.150000X0.587500X0.150000X-0.587500X0.150000X0*%
%ADD21R,1.600000X1.600000*%
%ADD22C,1.600000*%
%ADD23O,2.000000X4.000000*%
%ADD24O,3.500000X2.000000*%
%ADD25RoundRect,0.250000X-0.250000X-0.475000X0.250000X-0.475000X0.250000X0.475000X-0.250000X0.475000X0*%
%ADD26RoundRect,0.250000X-0.450000X0.262500X-0.450000X-0.262500X0.450000X-0.262500X0.450000X0.262500X0*%
%ADD27RoundRect,0.250000X0.450000X-0.262500X0.450000X0.262500X-0.450000X0.262500X-0.450000X-0.262500X0*%
%ADD28R,1.000000X1.000000*%
%ADD29O,1.000000X1.000000*%
%ADD30RoundRect,0.250000X-0.262500X-0.450000X0.262500X-0.450000X0.262500X0.450000X-0.262500X0.450000X0*%
G04 APERTURE END LIST*
D10*
%TO.C,U2*%
X149975000Y-105045000D03*
X149975000Y-103775000D03*
X149975000Y-102505000D03*
X149975000Y-101235000D03*
X149975000Y-99965000D03*
X149975000Y-98695000D03*
X149975000Y-97425000D03*
X149975000Y-96155000D03*
X144825000Y-96155000D03*
X144825000Y-97425000D03*
X144825000Y-98695000D03*
X144825000Y-99965000D03*
X144825000Y-101235000D03*
X144825000Y-102505000D03*
X144825000Y-103775000D03*
X144825000Y-105045000D03*
%TD*%
D11*
%TO.C,D2*%
X152462500Y-102400000D03*
X154337500Y-102400000D03*
%TD*%
D12*
%TO.C,C4*%
X142350000Y-107000000D03*
X140450000Y-107000000D03*
%TD*%
D11*
%TO.C,D1*%
X152462500Y-104400000D03*
X154337500Y-104400000D03*
%TD*%
D13*
%TO.C,R7*%
X154312500Y-96200000D03*
X152487500Y-96200000D03*
%TD*%
D14*
%TO.C,U1*%
X142337500Y-104950000D03*
X142337500Y-104000000D03*
X142337500Y-103050000D03*
X140062500Y-103050000D03*
X140062500Y-104950000D03*
%TD*%
D15*
%TO.C,J1*%
X130800000Y-104490000D03*
X130800000Y-98710000D03*
D16*
X132245000Y-98350000D03*
X132245000Y-99150000D03*
D17*
X132245000Y-100350000D03*
X132245000Y-101350000D03*
X132245000Y-101850000D03*
X132245000Y-102850000D03*
D16*
X132245000Y-104050000D03*
X132245000Y-104850000D03*
X132245000Y-104850000D03*
X132245000Y-104050000D03*
D17*
X132245000Y-103350000D03*
X132245000Y-102350000D03*
X132245000Y-100850000D03*
X132245000Y-99850000D03*
D16*
X132245000Y-99150000D03*
X132245000Y-98350000D03*
D18*
X127150000Y-105920000D03*
X127150000Y-97280000D03*
D19*
X131330000Y-105920000D03*
X131330000Y-97280000D03*
%TD*%
D20*
%TO.C,Q4*%
X156462500Y-107050000D03*
X156462500Y-108950000D03*
X158337500Y-108000000D03*
%TD*%
D21*
%TO.C,J3*%
X164825000Y-100290000D03*
D22*
X164825000Y-102890000D03*
X164825000Y-98190000D03*
X164825000Y-104990000D03*
X162025000Y-98190000D03*
X162025000Y-104990000D03*
D23*
X168475000Y-101590000D03*
D24*
X167675000Y-94740000D03*
X167675000Y-108440000D03*
%TD*%
D11*
%TO.C,D3*%
X152462500Y-100400000D03*
X154337500Y-100400000D03*
%TD*%
D20*
%TO.C,Q3*%
X156462500Y-103450000D03*
X156462500Y-105350000D03*
X158337500Y-104400000D03*
%TD*%
%TO.C,Q1*%
X156462500Y-94250000D03*
X156462500Y-96150000D03*
X158337500Y-95200000D03*
%TD*%
D25*
%TO.C,C1*%
X144050000Y-107000000D03*
X145950000Y-107000000D03*
%TD*%
D26*
%TO.C,R2*%
X136000000Y-103087500D03*
X136000000Y-104912500D03*
%TD*%
D13*
%TO.C,R8*%
X154312500Y-107000000D03*
X152487500Y-107000000D03*
%TD*%
D27*
%TO.C,R1*%
X136000000Y-99912500D03*
X136000000Y-98087500D03*
%TD*%
D12*
%TO.C,C3*%
X137750000Y-107000000D03*
X135850000Y-107000000D03*
%TD*%
D20*
%TO.C,Q2*%
X156462500Y-97850000D03*
X156462500Y-99750000D03*
X158337500Y-98800000D03*
%TD*%
D25*
%TO.C,C5*%
X156450000Y-101600000D03*
X158350000Y-101600000D03*
%TD*%
D28*
%TO.C,J2*%
X140750000Y-99000000D03*
D29*
X142020000Y-99000000D03*
%TD*%
D30*
%TO.C,R5*%
X135887500Y-96200000D03*
X137712500Y-96200000D03*
%TD*%
D13*
%TO.C,R6*%
X154312500Y-98400000D03*
X152487500Y-98400000D03*
%TD*%
D27*
%TO.C,R9*%
X138400000Y-101512500D03*
X138400000Y-99687500D03*
%TD*%
D30*
%TO.C,R4*%
X139887500Y-96200000D03*
X141712500Y-96200000D03*
%TD*%
D26*
%TO.C,R3*%
X138000000Y-103087500D03*
X138000000Y-104912500D03*
%TD*%
D25*
%TO.C,C2*%
X147650000Y-107000000D03*
X149550000Y-107000000D03*
%TD*%
M02*
