%TF.GenerationSoftware,KiCad,Pcbnew,(6.0.5)*%
%TF.CreationDate,2025-03-09T20:53:28+01:00*%
%TF.ProjectId,PS2_to_USB_Converter,5053325f-746f-45f5-9553-425f436f6e76,rev?*%
%TF.SameCoordinates,Original*%
%TF.FileFunction,Legend,Top*%
%TF.FilePolarity,Positive*%
%FSLAX46Y46*%
G04 Gerber Fmt 4.6, Leading zero omitted, Abs format (unit mm)*
G04 Created by KiCad (PCBNEW (6.0.5)) date 2025-03-09 20:53:28*
%MOMM*%
%LPD*%
G01*
G04 APERTURE LIST*
G04 Aperture macros list*
%AMRoundRect*
0 Rectangle with rounded corners*
0 $1 Rounding radius*
0 $2 $3 $4 $5 $6 $7 $8 $9 X,Y pos of 4 corners*
0 Add a 4 corners polygon primitive as box body*
4,1,4,$2,$3,$4,$5,$6,$7,$8,$9,$2,$3,0*
0 Add four circle primitives for the rounded corners*
1,1,$1+$1,$2,$3*
1,1,$1+$1,$4,$5*
1,1,$1+$1,$6,$7*
1,1,$1+$1,$8,$9*
0 Add four rect primitives between the rounded corners*
20,1,$1+$1,$2,$3,$4,$5,0*
20,1,$1+$1,$4,$5,$6,$7,0*
20,1,$1+$1,$6,$7,$8,$9,0*
20,1,$1+$1,$8,$9,$2,$3,0*%
G04 Aperture macros list end*
%ADD10C,0.150000*%
%ADD11C,0.120000*%
%ADD12RoundRect,0.150000X0.725000X0.150000X-0.725000X0.150000X-0.725000X-0.150000X0.725000X-0.150000X0*%
%ADD13RoundRect,0.243750X-0.243750X-0.456250X0.243750X-0.456250X0.243750X0.456250X-0.243750X0.456250X0*%
%ADD14RoundRect,0.250000X0.250000X0.475000X-0.250000X0.475000X-0.250000X-0.475000X0.250000X-0.475000X0*%
%ADD15RoundRect,0.250000X0.262500X0.450000X-0.262500X0.450000X-0.262500X-0.450000X0.262500X-0.450000X0*%
%ADD16RoundRect,0.150000X0.512500X0.150000X-0.512500X0.150000X-0.512500X-0.150000X0.512500X-0.150000X0*%
%ADD17C,0.650000*%
%ADD18R,1.450000X0.600000*%
%ADD19R,1.450000X0.300000*%
%ADD20O,1.600000X1.000000*%
%ADD21O,2.100000X1.000000*%
%ADD22RoundRect,0.150000X-0.587500X-0.150000X0.587500X-0.150000X0.587500X0.150000X-0.587500X0.150000X0*%
%ADD23R,1.600000X1.600000*%
%ADD24C,1.600000*%
%ADD25O,2.000000X4.000000*%
%ADD26O,3.500000X2.000000*%
%ADD27RoundRect,0.250000X-0.250000X-0.475000X0.250000X-0.475000X0.250000X0.475000X-0.250000X0.475000X0*%
%ADD28RoundRect,0.250000X-0.450000X0.262500X-0.450000X-0.262500X0.450000X-0.262500X0.450000X0.262500X0*%
%ADD29RoundRect,0.250000X0.450000X-0.262500X0.450000X0.262500X-0.450000X0.262500X-0.450000X-0.262500X0*%
%ADD30R,1.000000X1.000000*%
%ADD31O,1.000000X1.000000*%
%ADD32RoundRect,0.250000X-0.262500X-0.450000X0.262500X-0.450000X0.262500X0.450000X-0.262500X0.450000X0*%
G04 APERTURE END LIST*
D10*
X128280952Y-94728571D02*
X128614285Y-94728571D01*
X128757142Y-95252380D02*
X128280952Y-95252380D01*
X128280952Y-94252380D01*
X128757142Y-94252380D01*
X129661904Y-95252380D02*
X129185714Y-95252380D01*
X129185714Y-94252380D01*
X130566666Y-95252380D02*
X130233333Y-94776190D01*
X129995238Y-95252380D02*
X129995238Y-94252380D01*
X130376190Y-94252380D01*
X130471428Y-94300000D01*
X130519047Y-94347619D01*
X130566666Y-94442857D01*
X130566666Y-94585714D01*
X130519047Y-94680952D01*
X130471428Y-94728571D01*
X130376190Y-94776190D01*
X129995238Y-94776190D01*
%TO.C,C4*%
X141233333Y-109037142D02*
X141185714Y-109084761D01*
X141042857Y-109132380D01*
X140947619Y-109132380D01*
X140804761Y-109084761D01*
X140709523Y-108989523D01*
X140661904Y-108894285D01*
X140614285Y-108703809D01*
X140614285Y-108560952D01*
X140661904Y-108370476D01*
X140709523Y-108275238D01*
X140804761Y-108180000D01*
X140947619Y-108132380D01*
X141042857Y-108132380D01*
X141185714Y-108180000D01*
X141233333Y-108227619D01*
X142090476Y-108465714D02*
X142090476Y-109132380D01*
X141852380Y-108084761D02*
X141614285Y-108799047D01*
X142233333Y-108799047D01*
%TO.C,U1*%
X140238095Y-101252380D02*
X140238095Y-102061904D01*
X140285714Y-102157142D01*
X140333333Y-102204761D01*
X140428571Y-102252380D01*
X140619047Y-102252380D01*
X140714285Y-102204761D01*
X140761904Y-102157142D01*
X140809523Y-102061904D01*
X140809523Y-101252380D01*
X141809523Y-102252380D02*
X141238095Y-102252380D01*
X141523809Y-102252380D02*
X141523809Y-101252380D01*
X141428571Y-101395238D01*
X141333333Y-101490476D01*
X141238095Y-101538095D01*
%TO.C,J1*%
X133852380Y-102533333D02*
X134566666Y-102533333D01*
X134709523Y-102580952D01*
X134804761Y-102676190D01*
X134852380Y-102819047D01*
X134852380Y-102914285D01*
X134852380Y-101533333D02*
X134852380Y-102104761D01*
X134852380Y-101819047D02*
X133852380Y-101819047D01*
X133995238Y-101914285D01*
X134090476Y-102009523D01*
X134138095Y-102104761D01*
%TO.C,Q4*%
X159304761Y-109747619D02*
X159209523Y-109700000D01*
X159114285Y-109604761D01*
X158971428Y-109461904D01*
X158876190Y-109414285D01*
X158780952Y-109414285D01*
X158828571Y-109652380D02*
X158733333Y-109604761D01*
X158638095Y-109509523D01*
X158590476Y-109319047D01*
X158590476Y-108985714D01*
X158638095Y-108795238D01*
X158733333Y-108700000D01*
X158828571Y-108652380D01*
X159019047Y-108652380D01*
X159114285Y-108700000D01*
X159209523Y-108795238D01*
X159257142Y-108985714D01*
X159257142Y-109319047D01*
X159209523Y-109509523D01*
X159114285Y-109604761D01*
X159019047Y-109652380D01*
X158828571Y-109652380D01*
X160114285Y-108985714D02*
X160114285Y-109652380D01*
X159876190Y-108604761D02*
X159638095Y-109319047D01*
X160257142Y-109319047D01*
%TO.C,J3*%
X159252380Y-100733333D02*
X159966666Y-100733333D01*
X160109523Y-100780952D01*
X160204761Y-100876190D01*
X160252380Y-101019047D01*
X160252380Y-101114285D01*
X159252380Y-100352380D02*
X159252380Y-99733333D01*
X159633333Y-100066666D01*
X159633333Y-99923809D01*
X159680952Y-99828571D01*
X159728571Y-99780952D01*
X159823809Y-99733333D01*
X160061904Y-99733333D01*
X160157142Y-99780952D01*
X160204761Y-99828571D01*
X160252380Y-99923809D01*
X160252380Y-100209523D01*
X160204761Y-100304761D01*
X160157142Y-100352380D01*
%TO.C,Q3*%
X159304761Y-106147619D02*
X159209523Y-106100000D01*
X159114285Y-106004761D01*
X158971428Y-105861904D01*
X158876190Y-105814285D01*
X158780952Y-105814285D01*
X158828571Y-106052380D02*
X158733333Y-106004761D01*
X158638095Y-105909523D01*
X158590476Y-105719047D01*
X158590476Y-105385714D01*
X158638095Y-105195238D01*
X158733333Y-105100000D01*
X158828571Y-105052380D01*
X159019047Y-105052380D01*
X159114285Y-105100000D01*
X159209523Y-105195238D01*
X159257142Y-105385714D01*
X159257142Y-105719047D01*
X159209523Y-105909523D01*
X159114285Y-106004761D01*
X159019047Y-106052380D01*
X158828571Y-106052380D01*
X159590476Y-105052380D02*
X160209523Y-105052380D01*
X159876190Y-105433333D01*
X160019047Y-105433333D01*
X160114285Y-105480952D01*
X160161904Y-105528571D01*
X160209523Y-105623809D01*
X160209523Y-105861904D01*
X160161904Y-105957142D01*
X160114285Y-106004761D01*
X160019047Y-106052380D01*
X159733333Y-106052380D01*
X159638095Y-106004761D01*
X159590476Y-105957142D01*
%TO.C,Q1*%
X159304761Y-94747619D02*
X159209523Y-94700000D01*
X159114285Y-94604761D01*
X158971428Y-94461904D01*
X158876190Y-94414285D01*
X158780952Y-94414285D01*
X158828571Y-94652380D02*
X158733333Y-94604761D01*
X158638095Y-94509523D01*
X158590476Y-94319047D01*
X158590476Y-93985714D01*
X158638095Y-93795238D01*
X158733333Y-93700000D01*
X158828571Y-93652380D01*
X159019047Y-93652380D01*
X159114285Y-93700000D01*
X159209523Y-93795238D01*
X159257142Y-93985714D01*
X159257142Y-94319047D01*
X159209523Y-94509523D01*
X159114285Y-94604761D01*
X159019047Y-94652380D01*
X158828571Y-94652380D01*
X160209523Y-94652380D02*
X159638095Y-94652380D01*
X159923809Y-94652380D02*
X159923809Y-93652380D01*
X159828571Y-93795238D01*
X159733333Y-93890476D01*
X159638095Y-93938095D01*
%TO.C,C1*%
X144833333Y-109157142D02*
X144785714Y-109204761D01*
X144642857Y-109252380D01*
X144547619Y-109252380D01*
X144404761Y-109204761D01*
X144309523Y-109109523D01*
X144261904Y-109014285D01*
X144214285Y-108823809D01*
X144214285Y-108680952D01*
X144261904Y-108490476D01*
X144309523Y-108395238D01*
X144404761Y-108300000D01*
X144547619Y-108252380D01*
X144642857Y-108252380D01*
X144785714Y-108300000D01*
X144833333Y-108347619D01*
X145785714Y-109252380D02*
X145214285Y-109252380D01*
X145500000Y-109252380D02*
X145500000Y-108252380D01*
X145404761Y-108395238D01*
X145309523Y-108490476D01*
X145214285Y-108538095D01*
%TO.C,R2*%
X134852380Y-104766666D02*
X134376190Y-105100000D01*
X134852380Y-105338095D02*
X133852380Y-105338095D01*
X133852380Y-104957142D01*
X133900000Y-104861904D01*
X133947619Y-104814285D01*
X134042857Y-104766666D01*
X134185714Y-104766666D01*
X134280952Y-104814285D01*
X134328571Y-104861904D01*
X134376190Y-104957142D01*
X134376190Y-105338095D01*
X133947619Y-104385714D02*
X133900000Y-104338095D01*
X133852380Y-104242857D01*
X133852380Y-104004761D01*
X133900000Y-103909523D01*
X133947619Y-103861904D01*
X134042857Y-103814285D01*
X134138095Y-103814285D01*
X134280952Y-103861904D01*
X134852380Y-104433333D01*
X134852380Y-103814285D01*
%TO.C,R8*%
X153233333Y-109252380D02*
X152900000Y-108776190D01*
X152661904Y-109252380D02*
X152661904Y-108252380D01*
X153042857Y-108252380D01*
X153138095Y-108300000D01*
X153185714Y-108347619D01*
X153233333Y-108442857D01*
X153233333Y-108585714D01*
X153185714Y-108680952D01*
X153138095Y-108728571D01*
X153042857Y-108776190D01*
X152661904Y-108776190D01*
X153804761Y-108680952D02*
X153709523Y-108633333D01*
X153661904Y-108585714D01*
X153614285Y-108490476D01*
X153614285Y-108442857D01*
X153661904Y-108347619D01*
X153709523Y-108300000D01*
X153804761Y-108252380D01*
X153995238Y-108252380D01*
X154090476Y-108300000D01*
X154138095Y-108347619D01*
X154185714Y-108442857D01*
X154185714Y-108490476D01*
X154138095Y-108585714D01*
X154090476Y-108633333D01*
X153995238Y-108680952D01*
X153804761Y-108680952D01*
X153709523Y-108728571D01*
X153661904Y-108776190D01*
X153614285Y-108871428D01*
X153614285Y-109061904D01*
X153661904Y-109157142D01*
X153709523Y-109204761D01*
X153804761Y-109252380D01*
X153995238Y-109252380D01*
X154090476Y-109204761D01*
X154138095Y-109157142D01*
X154185714Y-109061904D01*
X154185714Y-108871428D01*
X154138095Y-108776190D01*
X154090476Y-108728571D01*
X153995238Y-108680952D01*
%TO.C,R1*%
X134852380Y-99966666D02*
X134376190Y-100300000D01*
X134852380Y-100538095D02*
X133852380Y-100538095D01*
X133852380Y-100157142D01*
X133900000Y-100061904D01*
X133947619Y-100014285D01*
X134042857Y-99966666D01*
X134185714Y-99966666D01*
X134280952Y-100014285D01*
X134328571Y-100061904D01*
X134376190Y-100157142D01*
X134376190Y-100538095D01*
X134852380Y-99014285D02*
X134852380Y-99585714D01*
X134852380Y-99300000D02*
X133852380Y-99300000D01*
X133995238Y-99395238D01*
X134090476Y-99490476D01*
X134138095Y-99585714D01*
%TO.C,C3*%
X136633333Y-109037142D02*
X136585714Y-109084761D01*
X136442857Y-109132380D01*
X136347619Y-109132380D01*
X136204761Y-109084761D01*
X136109523Y-108989523D01*
X136061904Y-108894285D01*
X136014285Y-108703809D01*
X136014285Y-108560952D01*
X136061904Y-108370476D01*
X136109523Y-108275238D01*
X136204761Y-108180000D01*
X136347619Y-108132380D01*
X136442857Y-108132380D01*
X136585714Y-108180000D01*
X136633333Y-108227619D01*
X136966666Y-108132380D02*
X137585714Y-108132380D01*
X137252380Y-108513333D01*
X137395238Y-108513333D01*
X137490476Y-108560952D01*
X137538095Y-108608571D01*
X137585714Y-108703809D01*
X137585714Y-108941904D01*
X137538095Y-109037142D01*
X137490476Y-109084761D01*
X137395238Y-109132380D01*
X137109523Y-109132380D01*
X137014285Y-109084761D01*
X136966666Y-109037142D01*
%TO.C,Q2*%
X159304761Y-98347619D02*
X159209523Y-98300000D01*
X159114285Y-98204761D01*
X158971428Y-98061904D01*
X158876190Y-98014285D01*
X158780952Y-98014285D01*
X158828571Y-98252380D02*
X158733333Y-98204761D01*
X158638095Y-98109523D01*
X158590476Y-97919047D01*
X158590476Y-97585714D01*
X158638095Y-97395238D01*
X158733333Y-97300000D01*
X158828571Y-97252380D01*
X159019047Y-97252380D01*
X159114285Y-97300000D01*
X159209523Y-97395238D01*
X159257142Y-97585714D01*
X159257142Y-97919047D01*
X159209523Y-98109523D01*
X159114285Y-98204761D01*
X159019047Y-98252380D01*
X158828571Y-98252380D01*
X159638095Y-97347619D02*
X159685714Y-97300000D01*
X159780952Y-97252380D01*
X160019047Y-97252380D01*
X160114285Y-97300000D01*
X160161904Y-97347619D01*
X160209523Y-97442857D01*
X160209523Y-97538095D01*
X160161904Y-97680952D01*
X159590476Y-98252380D01*
X160209523Y-98252380D01*
%TO.C,C5*%
X158833333Y-103557142D02*
X158785714Y-103604761D01*
X158642857Y-103652380D01*
X158547619Y-103652380D01*
X158404761Y-103604761D01*
X158309523Y-103509523D01*
X158261904Y-103414285D01*
X158214285Y-103223809D01*
X158214285Y-103080952D01*
X158261904Y-102890476D01*
X158309523Y-102795238D01*
X158404761Y-102700000D01*
X158547619Y-102652380D01*
X158642857Y-102652380D01*
X158785714Y-102700000D01*
X158833333Y-102747619D01*
X159738095Y-102652380D02*
X159261904Y-102652380D01*
X159214285Y-103128571D01*
X159261904Y-103080952D01*
X159357142Y-103033333D01*
X159595238Y-103033333D01*
X159690476Y-103080952D01*
X159738095Y-103128571D01*
X159785714Y-103223809D01*
X159785714Y-103461904D01*
X159738095Y-103557142D01*
X159690476Y-103604761D01*
X159595238Y-103652380D01*
X159357142Y-103652380D01*
X159261904Y-103604761D01*
X159214285Y-103557142D01*
%TO.C,J2*%
X138466666Y-97652380D02*
X138466666Y-98366666D01*
X138419047Y-98509523D01*
X138323809Y-98604761D01*
X138180952Y-98652380D01*
X138085714Y-98652380D01*
X138895238Y-97747619D02*
X138942857Y-97700000D01*
X139038095Y-97652380D01*
X139276190Y-97652380D01*
X139371428Y-97700000D01*
X139419047Y-97747619D01*
X139466666Y-97842857D01*
X139466666Y-97938095D01*
X139419047Y-98080952D01*
X138847619Y-98652380D01*
X139466666Y-98652380D01*
%TO.C,R5*%
X136633333Y-95002380D02*
X136300000Y-94526190D01*
X136061904Y-95002380D02*
X136061904Y-94002380D01*
X136442857Y-94002380D01*
X136538095Y-94050000D01*
X136585714Y-94097619D01*
X136633333Y-94192857D01*
X136633333Y-94335714D01*
X136585714Y-94430952D01*
X136538095Y-94478571D01*
X136442857Y-94526190D01*
X136061904Y-94526190D01*
X137538095Y-94002380D02*
X137061904Y-94002380D01*
X137014285Y-94478571D01*
X137061904Y-94430952D01*
X137157142Y-94383333D01*
X137395238Y-94383333D01*
X137490476Y-94430952D01*
X137538095Y-94478571D01*
X137585714Y-94573809D01*
X137585714Y-94811904D01*
X137538095Y-94907142D01*
X137490476Y-94954761D01*
X137395238Y-95002380D01*
X137157142Y-95002380D01*
X137061904Y-94954761D01*
X137014285Y-94907142D01*
%TO.C,R9*%
X136433333Y-101852380D02*
X136100000Y-101376190D01*
X135861904Y-101852380D02*
X135861904Y-100852380D01*
X136242857Y-100852380D01*
X136338095Y-100900000D01*
X136385714Y-100947619D01*
X136433333Y-101042857D01*
X136433333Y-101185714D01*
X136385714Y-101280952D01*
X136338095Y-101328571D01*
X136242857Y-101376190D01*
X135861904Y-101376190D01*
X136909523Y-101852380D02*
X137100000Y-101852380D01*
X137195238Y-101804761D01*
X137242857Y-101757142D01*
X137338095Y-101614285D01*
X137385714Y-101423809D01*
X137385714Y-101042857D01*
X137338095Y-100947619D01*
X137290476Y-100900000D01*
X137195238Y-100852380D01*
X137004761Y-100852380D01*
X136909523Y-100900000D01*
X136861904Y-100947619D01*
X136814285Y-101042857D01*
X136814285Y-101280952D01*
X136861904Y-101376190D01*
X136909523Y-101423809D01*
X137004761Y-101471428D01*
X137195238Y-101471428D01*
X137290476Y-101423809D01*
X137338095Y-101376190D01*
X137385714Y-101280952D01*
%TO.C,R4*%
X140633333Y-95002380D02*
X140300000Y-94526190D01*
X140061904Y-95002380D02*
X140061904Y-94002380D01*
X140442857Y-94002380D01*
X140538095Y-94050000D01*
X140585714Y-94097619D01*
X140633333Y-94192857D01*
X140633333Y-94335714D01*
X140585714Y-94430952D01*
X140538095Y-94478571D01*
X140442857Y-94526190D01*
X140061904Y-94526190D01*
X141490476Y-94335714D02*
X141490476Y-95002380D01*
X141252380Y-93954761D02*
X141014285Y-94669047D01*
X141633333Y-94669047D01*
%TO.C,R3*%
X139652380Y-106966666D02*
X139176190Y-107300000D01*
X139652380Y-107538095D02*
X138652380Y-107538095D01*
X138652380Y-107157142D01*
X138700000Y-107061904D01*
X138747619Y-107014285D01*
X138842857Y-106966666D01*
X138985714Y-106966666D01*
X139080952Y-107014285D01*
X139128571Y-107061904D01*
X139176190Y-107157142D01*
X139176190Y-107538095D01*
X138652380Y-106633333D02*
X138652380Y-106014285D01*
X139033333Y-106347619D01*
X139033333Y-106204761D01*
X139080952Y-106109523D01*
X139128571Y-106061904D01*
X139223809Y-106014285D01*
X139461904Y-106014285D01*
X139557142Y-106061904D01*
X139604761Y-106109523D01*
X139652380Y-106204761D01*
X139652380Y-106490476D01*
X139604761Y-106585714D01*
X139557142Y-106633333D01*
%TO.C,C2*%
X148433333Y-109157142D02*
X148385714Y-109204761D01*
X148242857Y-109252380D01*
X148147619Y-109252380D01*
X148004761Y-109204761D01*
X147909523Y-109109523D01*
X147861904Y-109014285D01*
X147814285Y-108823809D01*
X147814285Y-108680952D01*
X147861904Y-108490476D01*
X147909523Y-108395238D01*
X148004761Y-108300000D01*
X148147619Y-108252380D01*
X148242857Y-108252380D01*
X148385714Y-108300000D01*
X148433333Y-108347619D01*
X148814285Y-108347619D02*
X148861904Y-108300000D01*
X148957142Y-108252380D01*
X149195238Y-108252380D01*
X149290476Y-108300000D01*
X149338095Y-108347619D01*
X149385714Y-108442857D01*
X149385714Y-108538095D01*
X149338095Y-108680952D01*
X148766666Y-109252380D01*
X149385714Y-109252380D01*
D11*
%TO.C,U2*%
X147400000Y-105660000D02*
X145450000Y-105660000D01*
X147400000Y-95540000D02*
X145450000Y-95540000D01*
X147400000Y-105660000D02*
X150850000Y-105660000D01*
X147400000Y-95540000D02*
X149350000Y-95540000D01*
%TO.C,D2*%
X151715000Y-101440000D02*
X151715000Y-103360000D01*
X151715000Y-103360000D02*
X154400000Y-103360000D01*
X154400000Y-101440000D02*
X151715000Y-101440000D01*
%TO.C,C4*%
X141661252Y-107735000D02*
X141138748Y-107735000D01*
X141661252Y-106265000D02*
X141138748Y-106265000D01*
%TO.C,D1*%
X151715000Y-105360000D02*
X154400000Y-105360000D01*
X154400000Y-103440000D02*
X151715000Y-103440000D01*
X151715000Y-103440000D02*
X151715000Y-105360000D01*
%TO.C,R7*%
X153627064Y-95465000D02*
X153172936Y-95465000D01*
X153627064Y-96935000D02*
X153172936Y-96935000D01*
%TO.C,U1*%
X141200000Y-105560000D02*
X143000000Y-105560000D01*
X141200000Y-105560000D02*
X140400000Y-105560000D01*
X141200000Y-102440000D02*
X140400000Y-102440000D01*
X141200000Y-102440000D02*
X142000000Y-102440000D01*
%TO.C,J1*%
X130100000Y-106300000D02*
X128100000Y-106300000D01*
X126200000Y-106300000D02*
X124300000Y-106300000D01*
X126200000Y-96900000D02*
X124300000Y-96900000D01*
X124300000Y-96900000D02*
X124300000Y-106300000D01*
X130100000Y-96900000D02*
X128100000Y-96900000D01*
%TO.C,Q4*%
X157400000Y-106440000D02*
X155725000Y-106440000D01*
X157400000Y-109560000D02*
X158050000Y-109560000D01*
X157400000Y-106440000D02*
X158050000Y-106440000D01*
X157400000Y-109560000D02*
X156750000Y-109560000D01*
%TO.C,J3*%
X160425000Y-109690000D02*
X173425000Y-109690000D01*
X160425000Y-93490000D02*
X173425000Y-93490000D01*
X160425000Y-109690000D02*
X160425000Y-93490000D01*
X173425000Y-109690000D02*
X173425000Y-93490000D01*
%TO.C,D3*%
X154400000Y-99440000D02*
X151715000Y-99440000D01*
X151715000Y-101360000D02*
X154400000Y-101360000D01*
X151715000Y-99440000D02*
X151715000Y-101360000D01*
%TO.C,Q3*%
X157400000Y-102840000D02*
X158050000Y-102840000D01*
X157400000Y-105960000D02*
X156750000Y-105960000D01*
X157400000Y-102840000D02*
X155725000Y-102840000D01*
X157400000Y-105960000D02*
X158050000Y-105960000D01*
%TO.C,Q1*%
X157400000Y-93640000D02*
X158050000Y-93640000D01*
X157400000Y-93640000D02*
X155725000Y-93640000D01*
X157400000Y-96760000D02*
X158050000Y-96760000D01*
X157400000Y-96760000D02*
X156750000Y-96760000D01*
%TO.C,C1*%
X144738748Y-107735000D02*
X145261252Y-107735000D01*
X144738748Y-106265000D02*
X145261252Y-106265000D01*
%TO.C,R2*%
X135265000Y-103772936D02*
X135265000Y-104227064D01*
X136735000Y-103772936D02*
X136735000Y-104227064D01*
%TO.C,R8*%
X153627064Y-107735000D02*
X153172936Y-107735000D01*
X153627064Y-106265000D02*
X153172936Y-106265000D01*
%TO.C,R1*%
X136735000Y-99227064D02*
X136735000Y-98772936D01*
X135265000Y-99227064D02*
X135265000Y-98772936D01*
%TO.C,C3*%
X137061252Y-106265000D02*
X136538748Y-106265000D01*
X137061252Y-107735000D02*
X136538748Y-107735000D01*
%TO.C,Q2*%
X157400000Y-100360000D02*
X158050000Y-100360000D01*
X157400000Y-100360000D02*
X156750000Y-100360000D01*
X157400000Y-97240000D02*
X158050000Y-97240000D01*
X157400000Y-97240000D02*
X155725000Y-97240000D01*
%TO.C,C5*%
X157138748Y-100865000D02*
X157661252Y-100865000D01*
X157138748Y-102335000D02*
X157661252Y-102335000D01*
%TO.C,J2*%
X141510000Y-100110000D02*
X142715000Y-100110000D01*
X141510000Y-100110000D02*
X141510000Y-99563471D01*
X142715000Y-100110000D02*
X142715000Y-99307530D01*
X139990000Y-100110000D02*
X139990000Y-99000000D01*
X142715000Y-98692470D02*
X142715000Y-97890000D01*
X141510000Y-98436529D02*
X141510000Y-97890000D01*
X141510000Y-97890000D02*
X142715000Y-97890000D01*
X140750000Y-100110000D02*
X139990000Y-100110000D01*
%TO.C,R5*%
X136572936Y-95465000D02*
X137027064Y-95465000D01*
X136572936Y-96935000D02*
X137027064Y-96935000D01*
%TO.C,R6*%
X153627064Y-97665000D02*
X153172936Y-97665000D01*
X153627064Y-99135000D02*
X153172936Y-99135000D01*
%TO.C,R9*%
X137665000Y-100827064D02*
X137665000Y-100372936D01*
X139135000Y-100827064D02*
X139135000Y-100372936D01*
%TO.C,R4*%
X140572936Y-95465000D02*
X141027064Y-95465000D01*
X140572936Y-96935000D02*
X141027064Y-96935000D01*
%TO.C,R3*%
X137265000Y-103772936D02*
X137265000Y-104227064D01*
X138735000Y-103772936D02*
X138735000Y-104227064D01*
%TO.C,C2*%
X148338748Y-107735000D02*
X148861252Y-107735000D01*
X148338748Y-106265000D02*
X148861252Y-106265000D01*
%TD*%
%LPC*%
D12*
%TO.C,U2*%
X149975000Y-105045000D03*
X149975000Y-103775000D03*
X149975000Y-102505000D03*
X149975000Y-101235000D03*
X149975000Y-99965000D03*
X149975000Y-98695000D03*
X149975000Y-97425000D03*
X149975000Y-96155000D03*
X144825000Y-96155000D03*
X144825000Y-97425000D03*
X144825000Y-98695000D03*
X144825000Y-99965000D03*
X144825000Y-101235000D03*
X144825000Y-102505000D03*
X144825000Y-103775000D03*
X144825000Y-105045000D03*
%TD*%
D13*
%TO.C,D2*%
X152462500Y-102400000D03*
X154337500Y-102400000D03*
%TD*%
D14*
%TO.C,C4*%
X142350000Y-107000000D03*
X140450000Y-107000000D03*
%TD*%
D13*
%TO.C,D1*%
X152462500Y-104400000D03*
X154337500Y-104400000D03*
%TD*%
D15*
%TO.C,R7*%
X154312500Y-96200000D03*
X152487500Y-96200000D03*
%TD*%
D16*
%TO.C,U1*%
X142337500Y-104950000D03*
X142337500Y-104000000D03*
X142337500Y-103050000D03*
X140062500Y-103050000D03*
X140062500Y-104950000D03*
%TD*%
D17*
%TO.C,J1*%
X130800000Y-104490000D03*
X130800000Y-98710000D03*
D18*
X132245000Y-98350000D03*
X132245000Y-99150000D03*
D19*
X132245000Y-100350000D03*
X132245000Y-101350000D03*
X132245000Y-101850000D03*
X132245000Y-102850000D03*
D18*
X132245000Y-104050000D03*
X132245000Y-104850000D03*
X132245000Y-104850000D03*
X132245000Y-104050000D03*
D19*
X132245000Y-103350000D03*
X132245000Y-102350000D03*
X132245000Y-100850000D03*
X132245000Y-99850000D03*
D18*
X132245000Y-99150000D03*
X132245000Y-98350000D03*
D20*
X127150000Y-105920000D03*
X127150000Y-97280000D03*
D21*
X131330000Y-105920000D03*
X131330000Y-97280000D03*
%TD*%
D22*
%TO.C,Q4*%
X156462500Y-107050000D03*
X156462500Y-108950000D03*
X158337500Y-108000000D03*
%TD*%
D23*
%TO.C,J3*%
X164825000Y-100290000D03*
D24*
X164825000Y-102890000D03*
X164825000Y-98190000D03*
X164825000Y-104990000D03*
X162025000Y-98190000D03*
X162025000Y-104990000D03*
D25*
X168475000Y-101590000D03*
D26*
X167675000Y-94740000D03*
X167675000Y-108440000D03*
%TD*%
D13*
%TO.C,D3*%
X152462500Y-100400000D03*
X154337500Y-100400000D03*
%TD*%
D22*
%TO.C,Q3*%
X156462500Y-103450000D03*
X156462500Y-105350000D03*
X158337500Y-104400000D03*
%TD*%
%TO.C,Q1*%
X156462500Y-94250000D03*
X156462500Y-96150000D03*
X158337500Y-95200000D03*
%TD*%
D27*
%TO.C,C1*%
X144050000Y-107000000D03*
X145950000Y-107000000D03*
%TD*%
D28*
%TO.C,R2*%
X136000000Y-103087500D03*
X136000000Y-104912500D03*
%TD*%
D15*
%TO.C,R8*%
X154312500Y-107000000D03*
X152487500Y-107000000D03*
%TD*%
D29*
%TO.C,R1*%
X136000000Y-99912500D03*
X136000000Y-98087500D03*
%TD*%
D14*
%TO.C,C3*%
X137750000Y-107000000D03*
X135850000Y-107000000D03*
%TD*%
D22*
%TO.C,Q2*%
X156462500Y-97850000D03*
X156462500Y-99750000D03*
X158337500Y-98800000D03*
%TD*%
D27*
%TO.C,C5*%
X156450000Y-101600000D03*
X158350000Y-101600000D03*
%TD*%
D30*
%TO.C,J2*%
X140750000Y-99000000D03*
D31*
X142020000Y-99000000D03*
%TD*%
D32*
%TO.C,R5*%
X135887500Y-96200000D03*
X137712500Y-96200000D03*
%TD*%
D15*
%TO.C,R6*%
X154312500Y-98400000D03*
X152487500Y-98400000D03*
%TD*%
D29*
%TO.C,R9*%
X138400000Y-101512500D03*
X138400000Y-99687500D03*
%TD*%
D32*
%TO.C,R4*%
X139887500Y-96200000D03*
X141712500Y-96200000D03*
%TD*%
D28*
%TO.C,R3*%
X138000000Y-103087500D03*
X138000000Y-104912500D03*
%TD*%
D27*
%TO.C,C2*%
X147650000Y-107000000D03*
X149550000Y-107000000D03*
%TD*%
M02*
